<svg width="184" height="184" viewBox="0 0 184 184" fill="none" xmlns="http://www.w3.org/2000/svg">
<rect width="184" height="184" rx="92" fill="white"/>
<path fill-rule="evenodd" clip-rule="evenodd" d="M118.002 131.565H78.632C64.8264 131.565 53.634 120.344 53.634 106.503V57.4551C53.634 57.2039 53.6377 56.9535 53.645 56.7041C57.2887 54.6236 61.505 53.4351 65.9979 53.4351H105.368C119.174 53.4351 130.366 64.6562 130.366 78.4972V127.545C130.366 127.796 130.362 128.047 130.355 128.296C126.711 130.377 122.495 131.565 118.002 131.565Z" fill="white"/>
<path fill-rule="evenodd" clip-rule="evenodd" d="M78.632 131.565H118.002C122.495 131.565 126.711 130.377 130.355 128.296C129.959 141.79 118.923 152.607 105.368 152.607H65.9979C52.1924 152.607 41 141.386 41 127.545V78.497C41 69.1606 46.0928 61.0162 53.645 56.7039C53.6377 56.9534 53.634 57.2037 53.634 57.4549V106.503C53.634 120.344 64.8264 131.565 78.632 131.565ZM53.645 56.7039C54.0412 43.2099 65.077 32.3928 78.632 32.3928H118.002C131.808 32.3928 143 43.6135 143 57.4549V106.503C143 115.839 137.907 123.984 130.355 128.296C130.362 128.047 130.366 127.796 130.366 127.545V78.497C130.366 64.6561 119.174 53.4349 105.368 53.4349H65.9979C61.505 53.4349 57.2887 54.6234 53.645 56.7039Z" fill="#E42B36"/>
<path d="M88.2967 78.9912L80.121 98.9445C82.4979 99.0753 85.1205 99.1385 87.987 99.1385C90.9842 99.1385 93.8516 99.0753 96.5903 98.9445L88.2967 78.9912ZM62.8871 116.636C65.3124 116.507 66.8096 116.263 67.376 115.898C67.7651 115.64 68.3726 114.657 69.1975 112.949C70.7714 109.59 72.7884 104.921 75.2393 98.9445L88.9508 65.3078H94.6436L112.153 106.976C114.424 112.231 115.823 115.114 116.355 115.616C116.883 116.121 118.516 116.459 121.253 116.636V120.166C117.046 119.985 113.073 119.895 109.33 119.895C104.865 119.895 100.618 119.985 96.5903 120.166V116.636C99.6642 116.509 101.436 116.338 101.916 116.124C102.393 115.911 102.632 115.527 102.632 114.967C102.632 114.488 102.088 112.845 101.004 110.043L98.4502 103.563C95.2456 103.482 91.6629 103.445 87.7066 103.445C84.2701 103.445 81.1413 103.482 78.3241 103.563L76.6223 107.918C76.1564 109.106 75.5901 110.876 74.9178 113.225C74.7634 113.757 74.6866 114.236 74.6866 114.665C74.6866 115.247 74.9369 115.657 75.4403 115.898C75.9445 116.138 77.7578 116.382 80.8774 116.636V120.166C78.3506 119.985 75.2009 119.895 71.4383 119.895C67.8501 119.895 64.9991 119.985 62.8871 120.166V116.636Z" fill="#E42B36"/>
</svg>
