<svg width="84" height="99" viewBox="0 0 84 99" fill="none" xmlns="http://www.w3.org/2000/svg">
<path fill-rule="evenodd" clip-rule="evenodd" d="M63.4135 81.6713H30.9911C19.6218 81.6713 10.4045 72.4304 10.4045 61.0319V20.6395C10.4045 20.4326 10.4076 20.2264 10.4136 20.021C13.4143 18.3076 16.8865 17.3289 20.5866 17.3289H53.009C64.3783 17.3289 73.5955 26.5698 73.5955 37.9683V78.3607C73.5955 78.5676 73.5925 78.7738 73.5865 78.9792C70.5858 80.6925 67.1136 81.6713 63.4135 81.6713Z" fill="white"/>
<path fill-rule="evenodd" clip-rule="evenodd" d="M30.991 81.6712H63.4135C67.1136 81.6712 70.5857 80.6925 73.5864 78.9791C73.2602 90.0918 64.1719 99 53.009 99H20.5865C9.21727 99 0 89.7594 0 78.3606V37.9682C0 30.2793 4.19405 23.5722 10.4136 20.0209C10.4075 20.2263 10.4045 20.4325 10.4045 20.6394V61.0318C10.4045 72.4303 19.6218 81.6712 30.991 81.6712ZM10.4136 20.0209C10.7398 8.90818 19.8281 0 30.991 0H63.4135C74.7827 0 84 9.24056 84 20.6394V61.0318C84 68.7207 79.8059 75.4278 73.5864 78.9791C73.5925 78.7737 73.5955 78.5675 73.5955 78.3606V37.9682C73.5955 26.5697 64.3782 17.3288 53.009 17.3288H20.5865C16.8864 17.3288 13.4143 18.3076 10.4136 20.0209Z" fill="#111111"/>
<path d="M38.9502 38.3752L32.2173 54.8073C34.1747 54.915 36.3345 54.967 38.6952 54.967C41.1635 54.967 43.5249 54.915 45.7802 54.8073L38.9502 38.3752ZM18.0247 69.3766C20.022 69.2703 21.255 69.0699 21.7214 68.7692C22.0419 68.5567 22.5421 67.7466 23.2215 66.3405C24.5176 63.5742 26.1787 59.7288 28.1971 54.8073L39.4889 27.1064H44.1771L58.5969 61.4212C60.4671 65.7489 61.6189 68.1234 62.0567 68.5371C62.4915 68.9523 63.8366 69.2311 66.0904 69.3766V72.2838C62.6262 72.1346 59.3545 72.0608 56.2716 72.0608C52.5944 72.0608 49.0971 72.1346 45.7802 72.2838V69.3766C48.3117 69.2718 49.7711 69.1317 50.1661 68.9553C50.5587 68.7798 50.7559 68.4633 50.7559 68.0021C50.7559 67.608 50.3075 66.2546 49.4153 63.9472L47.3119 58.6105C44.6729 58.5442 41.7224 58.5133 38.4643 58.5133C35.6342 58.5133 33.0576 58.5442 30.7375 58.6105L29.336 62.1974C28.9524 63.1755 28.4859 64.6329 27.9323 66.5681C27.8051 67.0059 27.7419 67.4 27.7419 67.7534C27.7419 68.2327 27.9481 68.5703 28.3626 68.7692C28.7778 68.9666 30.2711 69.1678 32.8402 69.3766V72.2838C30.7594 72.1346 28.1655 72.0608 25.0668 72.0608C22.1118 72.0608 19.7639 72.1346 18.0247 72.2838V69.3766Z" fill="#111111"/>
</svg>
