<?xml version="1.0" encoding="UTF-8"?>
<!DOCTYPE svg PUBLIC "-//W3C//DTD SVG 1.1//EN" "http://www.w3.org/Graphics/SVG/1.1/DTD/svg11.dtd">
<!-- Creator: CorelDRAW -->
<svg xmlns="http://www.w3.org/2000/svg" xml:space="preserve" width="69.85mm" height="49.7416mm" version="1.1" style="shape-rendering:geometricPrecision; text-rendering:geometricPrecision; image-rendering:optimizeQuality; fill-rule:evenodd; clip-rule:evenodd"
viewBox="0 0 6985 4974.16"
 xmlns:xlink="http://www.w3.org/1999/xlink"
 xmlns:xodm="http://www.corel.com/coreldraw/odm/2003">
 <defs>
  <style type="text/css">
   <![CDATA[
    .fil2 {fill:black;fill-rule:nonzero}
    .fil0 {fill:#7A7A7A;fill-rule:nonzero}
    .fil1 {fill:#A6A608;fill-rule:nonzero}
   ]]>
  </style>
 </defs>
 <g id="Camada_x0020_1">
  <metadata id="CorelCorpID_0Corel-Layer"/>
  <g id="_2917604001088">
   <path class="fil0" d="M5151.85 3330.54l-856.67 0c-300.4,0 -543.94,-243.54 -543.94,-543.94l0 -1064.52c0,-300.41 243.54,-543.94 543.94,-543.94l856.67 0c300.4,0 543.94,243.53 543.94,543.94l0 1064.52c0,300.4 -243.54,543.94 -543.94,543.94z"/>
  </g>
  <g id="_2917604002048">
   <path class="fil0" d="M4876.94 3787.23l-856.67 0c-300.4,0 -543.94,-243.53 -543.94,-543.94l0 -1064.52c0,-300.4 243.54,-543.94 543.94,-543.94l856.67 0c300.4,0 543.94,243.54 543.94,543.94l0 1064.52c0,300.41 -243.54,543.94 -543.94,543.94z"/>
  </g>
  <path class="fil1" d="M5909.23 4122.69l0 26.25 -24.71 0c0,0 9.95,0 17.64,-7.56 6.44,-6.3 7.07,-18.69 7.07,-18.69z"/>
  <path class="fil2" d="M1322.61 2185.84l-89.5 218.06c26.02,1.43 54.73,2.12 86.11,2.12 32.81,0 64.2,-0.69 94.18,-2.12l-90.79 -218.06zm-278.16 411.4c26.55,-1.41 42.94,-4.07 49.14,-8.06 4.26,-2.82 10.91,-13.57 19.94,-32.23 17.23,-36.71 39.31,-87.74 66.14,-153.05l150.1 -367.6 62.32 0 191.68 455.37c24.86,57.43 40.17,88.94 45.99,94.43 5.78,5.51 23.66,9.21 53.62,11.14l0 38.58c-46.05,-1.98 -89.54,-2.96 -130.52,-2.96 -48.88,0 -95.37,0.98 -139.46,2.96l0 -38.58c33.65,-1.39 53.05,-3.25 58.3,-5.59 5.22,-2.33 7.84,-6.53 7.84,-12.65 0,-5.23 -5.96,-23.19 -17.82,-53.81l-27.96 -70.82c-35.08,-0.88 -74.3,-1.29 -117.61,-1.29 -37.62,0 -71.87,0.41 -102.71,1.29l-18.63 47.6c-5.1,12.98 -11.3,32.32 -18.66,58 -1.69,5.81 -2.53,11.04 -2.53,15.73 0,6.36 2.74,10.84 8.25,13.48 5.52,2.62 25.37,5.29 59.52,8.06l0 38.58c-27.66,-1.98 -62.14,-2.96 -103.33,-2.96 -39.28,0 -70.49,0.98 -93.61,2.96l0 -38.58z"/>
  <path class="fil2" d="M1952.92 2587.5c16.33,4.23 31.68,6.34 46.1,6.34 40.03,0 70.76,-11.5 92.2,-34.54 21.4,-23.04 32.13,-56.88 32.13,-101.56 0,-29.11 -4.86,-52.93 -14.58,-71.44 -9.75,-18.5 -23.13,-32.28 -40.18,-41.33 -17.08,-9.04 -41.4,-13.57 -72.96,-13.57l-42.71 0.42 0 11.04 -0.87 109.79 0.87 111.11 0 23.74zm-1.29 -301.46l22.03 0c47.78,0 81.37,-8.61 100.71,-25.87 19.38,-17.26 29.06,-44.23 29.06,-80.98 0,-32.22 -7.86,-55.97 -23.54,-71.24 -15.71,-15.26 -41.5,-22.88 -77.38,-22.88 -13.29,0 -29.53,1.13 -48.76,3.39 -1.7,86.77 -2.56,139.92 -2.56,159.41l0.44 38.17zm-162.82 349.79l0 -19.94c16.12,-9.59 28.41,-18.35 36.9,-26.28 3.39,-39.02 5.07,-125.22 5.07,-258.63 0,-96.67 -1.41,-165.08 -4.2,-205.22 -1.44,-21.77 -4.42,-34.46 -8.92,-38.16 -6.23,-5.63 -27.72,-9.31 -64.44,-11.02l0 -35.6 81.4 1.68 62.33 1.28c18.92,0 46.9,-0.48 83.93,-1.5 35.91,-0.98 61.63,-1.46 77.16,-1.46 62.77,0 107.72,10.46 134.84,31.43 27.15,20.94 40.71,49.55 40.71,85.85 0,37.42 -13.41,67.94 -40.24,91.58 -26.79,23.6 -64.61,40.49 -113.43,50.63l0 3.36c50.22,5.1 85.53,12.73 105.84,22.92 20.32,10.2 36.71,26.05 49.12,47.57 12.42,21.49 18.62,45.99 18.62,73.44 0,33.68 -10.25,65.52 -30.73,95.53 -20.51,29.99 -47.63,52.91 -81.4,68.77 -33.8,15.84 -81.33,23.77 -142.68,23.77 -12.15,0 -30.36,-0.5 -54.69,-1.48 -22.62,-1 -41.12,-1.49 -55.55,-1.49 -16.1,0 -49.3,0.98 -99.64,2.97z"/>
  <path class="fil2" d="M2363.61 2635.82l0 -35.62c32.79,-2.83 51.56,-5.51 56.39,-8.04 3.11,-1.7 5.37,-4.38 6.76,-8.04 2.87,-6.8 4.84,-29.7 5.93,-68.71 1.44,-60.47 2.15,-108.11 2.15,-142.89 0,-46.92 -0.57,-106.56 -1.7,-178.91 -1.13,-53.99 -3.81,-87.07 -8.04,-99.23 -1.17,-3.67 -3.4,-6.49 -6.79,-8.47 -4.51,-2.83 -22.78,-5.92 -54.7,-9.31l0 -35.62c58.51,1.95 96.24,2.97 113.2,2.97l212.42 -2.97c46.08,0 79.64,4.43 100.71,13.31 21.05,8.92 37.71,23.16 50.02,42.77 12.31,19.62 18.47,42.68 18.47,69.23 0,33.87 -9.86,63.56 -29.5,89.1 -19.64,25.55 -53.77,48.19 -102.38,67.95l90.31 136.13 70.37 104.28c13.29,16.97 23.19,27.21 29.68,30.72 6.5,3.56 17.11,5.47 31.81,5.73l0 32.65 -25.01 0.44c-71.8,0.56 -118.03,1.39 -138.65,2.53 -24.6,-39.29 -61.34,-96.24 -110.25,-170.86l-87.34 -132.71c2.57,-4.8 4.69,-9.88 6.38,-15.26 11.3,1.41 19.65,2.12 24.98,2.12 26.29,0 52.16,-10.62 77.62,-31.86 25.44,-21.24 38.14,-51.53 38.14,-90.91 0,-34.28 -10.07,-60.89 -30.16,-79.84 -20.12,-18.99 -50.31,-28.47 -90.54,-28.47 -12.74,0 -30.02,0.98 -51.87,2.96l-2.77 125.18 -3.58 158.71c0,35.95 1.41,81.91 4.24,137.91 2.24,42.18 4.47,65.77 6.73,70.88 1.67,3.69 4.8,6.65 9.27,8.91 5.9,3.39 25.04,5.93 57.37,7.62l0 35.62c-50.81,-1.97 -95.81,-2.97 -135.04,-2.97 -41.79,0 -86.68,1 -134.63,2.97z"/>
  <path class="fil2" d="M3295.46 2185.84l-89.51 218.06c26.03,1.43 54.73,2.12 86.11,2.12 32.82,0 64.2,-0.69 94.19,-2.12l-90.79 -218.06zm-278.17 411.4c26.55,-1.41 42.91,-4.07 49.15,-8.06 4.26,-2.82 10.91,-13.57 19.94,-32.23 17.23,-36.71 39.31,-87.74 66.14,-153.05l150.09 -367.6 62.32 0 191.68 455.37c24.86,57.43 40.18,88.94 45.99,94.43 5.78,5.51 23.67,9.21 53.62,11.14l0 38.58c-46.05,-1.98 -89.53,-2.96 -130.52,-2.96 -48.87,0 -95.37,0.98 -139.45,2.96l0 -38.58c33.64,-1.39 53.05,-3.25 58.26,-5.59 5.25,-2.33 7.87,-6.53 7.87,-12.65 0,-5.23 -5.96,-23.19 -17.82,-53.81l-27.96 -70.82c-35.08,-0.88 -74.3,-1.29 -117.61,-1.29 -37.62,0 -71.86,0.41 -102.71,1.29l-18.66 47.6c-5.06,12.98 -11.29,32.32 -18.63,58 -1.7,5.81 -2.52,11.04 -2.52,15.73 0,6.36 2.73,10.84 8.25,13.48 5.51,2.62 25.36,5.29 59.52,8.06l0 38.58c-27.66,-1.98 -62.15,-2.96 -103.33,-2.96 -39.29,0 -70.49,0.98 -93.62,2.96l0 -38.58z"/>
  <path class="fil2" d="M4286.13 2543.82l10.58 9.75c-7.33,14.16 -13.83,28.54 -19.49,43.25 -32.76,17.24 -64.38,29.46 -94.75,36.68 -30.37,7.18 -65.37,10.81 -104.95,10.81 -74.03,0 -136.65,-12.98 -187.83,-39.01 -51.17,-26.02 -90.52,-62.62 -118.09,-109.84 -27.53,-47.17 -41.3,-101.3 -41.3,-162.37 0,-87.89 31.14,-159.91 93.46,-216.03 62.32,-56.1 148.35,-84.17 258.03,-84.17 36.45,0 72.54,3.29 108.31,9.78 35.76,6.49 71.29,16.39 106.61,29.69l2.98 6.35c-5.21,15.25 -8.82,29.95 -10.82,44.1 -3.76,24.56 -6.65,55.11 -8.67,91.57l-35.61 0c-1.7,-44.65 -3.41,-69.18 -5.07,-73.56 -1.7,-4.37 -9.48,-11.86 -23.31,-22.48 -13.86,-10.6 -32.55,-19.22 -56.13,-25.86 -23.57,-6.65 -49.62,-9.95 -78.14,-9.95 -67.75,0 -121.61,20.92 -161.55,62.73 -39.97,41.84 -59.93,100.06 -59.93,174.69 0,80.86 23.98,146.28 72.06,196.32 44.39,46.34 105.3,69.5 182.77,69.5 29.92,0 58,-3.1 84.14,-9.33 26.14,-6.19 55.05,-17.06 86.7,-32.62z"/>
  <path class="fil2" d="M4380.99 2635.82l0 -35.62 25.3 -1.69c20.47,-1.14 33.35,-4.66 38.57,-10.58 5.16,-5.97 8.2,-26.02 9.03,-60.22 2,-69.74 2.99,-145.29 2.99,-226.62 0,-43.23 -0.22,-92.35 -0.66,-147.43 -0.39,-33.28 -2.33,-53.65 -5.72,-60.97 -1.7,-3.68 -4.8,-6.66 -9.3,-8.89 -4.53,-2.26 -24.62,-4.67 -60.21,-7.2l0 -35.62c34.16,0.83 67.6,1.25 100.32,1.25 38.12,0 74.81,-0.42 110.1,-1.25 15.24,35.88 31.12,71.43 47.48,106.75 11.63,25.15 62.95,131.77 153.97,319.87 96.24,-193.17 163.64,-335.4 202.11,-426.62 33.83,1.39 65.96,2.12 96.42,2.12 35.83,0 70.37,-0.73 103.63,-2.12l0 35.62c-37.05,2.25 -57.94,5.5 -62.73,9.74 -4.8,4.23 -7.93,17.25 -9.34,39 -1.99,35.56 -2.97,103.23 -2.97,202.9 0,50.27 0.51,103.35 1.49,159.27 0.98,55.91 2.89,87.53 5.72,94.91 2,4.23 4.8,7.48 8.46,9.74 3.7,2.25 23.46,4.95 59.37,8.04l0 35.62c-45.77,-1.97 -86.64,-2.97 -122.52,-2.97 -36.19,0 -85.37,1 -147.54,2.97l0 -35.62 25.01 -0.83c19.79,-0.86 32.16,-3.6 37.1,-8.25 4.95,-4.69 8.11,-16.99 9.52,-36.9 1.43,-19.94 2.14,-66.88 2.14,-140.89l0 -255.86c-43.58,87.37 -99.22,201.88 -166.82,343.51 -27.75,58.24 -49.39,105.73 -64.98,142.47l-27.86 0c-21.22,-48.61 -49.66,-110.09 -85.33,-184.46l-146.82 -301.52 0 57.62c0,159.29 0.68,269 2.11,329.15 0.84,24.31 4.08,39.31 9.75,44.95 5.63,5.65 26.71,9.32 63.15,11.01l0 35.62c-28.76,-1.97 -57.52,-2.97 -86.28,-2.97 -42.89,0 -81.1,1 -114.66,2.97z"/>
  <path class="fil2" d="M1105.86 2814.64l-18 43.92c5.21,0.31 11.02,0.42 17.34,0.42 6.59,0 12.91,-0.11 18.96,-0.42l-18.3 -43.92zm-56.04 82.88c5.34,-0.26 8.64,-0.84 9.9,-1.6 0.83,-0.57 2.17,-2.75 4.02,-6.5 3.46,-7.4 7.93,-17.68 13.33,-30.86l30.25 -74.05 12.57 0 38.61 91.73c5,11.6 8.1,17.93 9.26,19.05 1.16,1.11 4.77,1.85 10.79,2.23l0 7.78c-9.27,-0.38 -18.03,-0.6 -26.29,-0.6 -9.83,0 -19.22,0.22 -28.1,0.6l0 -7.78c6.79,-0.26 10.7,-0.64 11.74,-1.12 1.08,-0.46 1.61,-1.32 1.61,-2.54 0,-1.05 -1.22,-4.69 -3.61,-10.86l-5.63 -14.27c-7.07,-0.14 -14.96,-0.24 -23.69,-0.24 -7.61,0 -14.49,0.1 -20.69,0.24l-3.76 9.6c-1.04,2.62 -2.29,6.49 -3.75,11.68 -0.36,1.16 -0.54,2.24 -0.54,3.2 0,1.27 0.57,2.17 1.67,2.71 1.1,0.5 5.13,1.08 11.99,1.6l0 7.78c-5.55,-0.38 -12.53,-0.6 -20.81,-0.6 -7.93,0 -14.21,0.22 -18.87,0.6l0 -7.78z"/>
  <path class="fil2" d="M1196 2877.61c0.3,7.37 0.62,11.45 1.11,12.32 1.25,2.32 3.57,4.38 7.03,6.14 3.45,1.75 7.42,2.65 11.98,2.65 5.54,0 9.71,-1.16 12.48,-3.43 2.78,-2.32 4.12,-5.36 4.12,-9.15 0,-3.27 -0.98,-5.87 -2.98,-7.75 -2,-1.87 -6.26,-3.55 -12.81,-4.95 -9.93,-2.17 -16.37,-4.05 -19.35,-5.69 -3.01,-1.61 -5.37,-4.03 -7.16,-7.2 -1.75,-3.2 -2.62,-7.01 -2.62,-11.48 0,-5.22 1.31,-9.87 3.91,-13.88 2.63,-4.09 6.38,-7.25 11.29,-9.54 4.92,-2.34 11.42,-3.46 19.53,-3.46 8.4,0 16.24,1.36 23.45,4.07 -0.78,4.66 -1.28,11.84 -1.54,21.61l-6.77 0c-0.3,-6.13 -0.8,-9.75 -1.43,-10.82 -0.87,-1.66 -2.47,-3.05 -4.86,-4.2 -3.31,-1.55 -6.86,-2.33 -10.61,-2.33 -4.77,0 -8.5,1.07 -11.15,3.23 -2.65,2.12 -3.96,4.79 -3.96,8.01 0,3.01 1.19,5.43 3.57,7.19 2.39,1.79 8.11,3.55 17.11,5.19 6.2,1.13 10.49,2.18 12.87,3.15 4,1.69 7.04,4.21 9.13,7.49 2.05,3.27 3.1,7.42 3.1,12.46 0,9.64 -3.73,17.01 -11.18,22.14 -7.45,5.15 -16.33,7.72 -26.61,7.72 -3.41,0 -7.19,-0.4 -11.36,-1.19 -4.14,-0.79 -8.67,-1.94 -13.56,-3.46l-1.28 -1.43c0.68,-4.95 1.13,-12.76 1.28,-23.41l7.27 0z"/>
  <path class="fil2" d="M1273.66 2877.61c0.3,7.37 0.65,11.45 1.1,12.32 1.25,2.32 3.61,4.38 7.04,6.14 3.45,1.75 7.41,2.65 11.98,2.65 5.57,0 9.75,-1.16 12.48,-3.43 2.77,-2.32 4.12,-5.36 4.12,-9.15 0,-3.27 -0.98,-5.87 -2.95,-7.75 -2.03,-1.87 -6.29,-3.55 -12.85,-4.95 -9.89,-2.17 -16.37,-4.05 -19.31,-5.69 -3.01,-1.61 -5.4,-4.03 -7.19,-7.2 -1.73,-3.2 -2.62,-7.01 -2.62,-11.48 0,-5.22 1.31,-9.87 3.91,-13.88 2.62,-4.09 6.4,-7.25 11.32,-9.54 4.92,-2.34 11.41,-3.46 19.49,-3.46 8.44,0 16.25,1.36 23.46,4.07 -0.77,4.66 -1.25,11.84 -1.52,21.61l-6.77 0c-0.33,-6.13 -0.83,-9.75 -1.42,-10.82 -0.9,-1.66 -2.48,-3.05 -4.9,-4.2 -3.3,-1.55 -6.82,-2.33 -10.61,-2.33 -4.76,0 -8.49,1.07 -11.14,3.23 -2.65,2.12 -3.96,4.79 -3.96,8.01 0,3.01 1.19,5.43 3.57,7.19 2.38,1.79 8.11,3.55 17.11,5.19 6.2,1.13 10.49,2.18 12.91,3.15 3.96,1.69 7.03,4.21 9.08,7.49 2.06,3.27 3.1,7.42 3.1,12.46 0,9.64 -3.72,17.01 -11.18,22.14 -7.44,5.15 -16.33,7.72 -26.58,7.72 -3.43,0 -7.21,-0.4 -11.35,-1.19 -4.17,-0.79 -8.68,-1.94 -13.57,-3.46l-1.27 -1.43c0.65,-4.95 1.09,-12.76 1.27,-23.41l7.25 0z"/>
  <path class="fil2" d="M1366.54 2858.82c0,15.17 1.93,26.03 5.81,32.46 3.01,4.97 7.54,7.45 13.56,7.45 5.31,0 9.42,-2.12 12.28,-6.36 2.86,-4.23 4.32,-11.87 4.32,-23.04 0,-15.27 -1.79,-25.89 -5.3,-31.76 -2.89,-4.67 -7.46,-7.03 -13.6,-7.03 -5.27,0 -9.44,2.14 -12.51,6.43 -3.04,4.29 -4.56,11.56 -4.56,21.85zm-23.67 5.88c0,-13.54 3.16,-23.68 9.48,-30.46 7.57,-8.05 18.54,-12.05 32.82,-12.05 14.24,0 24.62,3.19 31.17,9.65 6.56,6.45 9.84,16.61 9.84,30.53 0,14.31 -3.79,25.36 -11.33,33.08 -7.54,7.78 -18.03,11.66 -31.5,11.66 -13.21,0 -23.25,-3.62 -30.14,-10.88 -6.91,-7.21 -10.34,-17.74 -10.34,-31.53z"/>
  <path class="fil2" d="M1500.42 2852.93l-7 0c-0.42,-6.77 -0.89,-10.68 -1.45,-11.72 -0.78,-1.58 -2.42,-3.03 -5.01,-4.35 -2.63,-1.32 -5.88,-1.95 -9.81,-1.95 -6.05,0 -10.5,1.7 -13.27,5.18 -2.74,3.45 -4.14,9.68 -4.14,18.65 0,11.36 2.6,20.14 7.78,26.35 5.19,6.19 11.87,9.29 20,9.29 2.98,0 5.7,-0.26 8.17,-0.76 2.47,-0.54 4.73,-1.3 6.79,-2.24l1.43 1.87c-1.25,2.72 -2.38,5.48 -3.45,8.25 -3.79,1.86 -7.61,3.26 -11.51,4.22 -3.93,0.92 -7.84,1.35 -11.83,1.35 -12.43,0 -22.08,-3.39 -29.03,-10.28 -6.92,-6.87 -10.37,-16.62 -10.37,-29.29 0,-4.69 0.44,-8.92 1.34,-12.7 0.92,-3.79 2.17,-7.01 3.73,-9.66 1.58,-2.66 3.3,-4.79 5.15,-6.47 1.17,-0.92 6.05,-4.07 14.69,-9.48 5.07,-3.17 8.76,-5.15 11.1,-5.89 2.32,-0.74 5.39,-1.13 9.26,-1.13 3.4,0 6.76,0.27 9.98,0.77 3.25,0.5 6.41,1.28 9.48,2.29l1.46 1.56c-2.03,9.51 -3.22,18.21 -3.49,26.14z"/>
  <path class="fil2" d="M1539.98 2781.33c3.64,0 6.77,1.29 9.33,3.88 2.59,2.59 3.9,5.75 3.9,9.46 0,3.63 -1.31,6.75 -3.9,9.35 -2.56,2.59 -5.72,3.91 -9.41,3.91 -3.67,0 -6.77,-1.32 -9.37,-3.91 -2.59,-2.6 -3.87,-5.72 -3.87,-9.35 0,-3.71 1.28,-6.87 3.87,-9.46 2.6,-2.59 5.76,-3.88 9.45,-3.88zm-23.75 123.97l0 -7.01c6.44,-0.2 10.16,-0.62 11.14,-1.19 0.98,-0.56 1.64,-2.14 1.94,-4.8 0.42,-3.57 0.66,-11.5 0.66,-23.78 0,-5.29 -0.09,-10.2 -0.27,-14.69l-0.24 -10.03c0,-3.29 -0.35,-5.32 -1.07,-6.11 -0.69,-0.77 -2.65,-1.21 -5.76,-1.33l-6.4 -0.26 0 -6.57c13.7,-1.03 25.03,-3.49 33.91,-7.36l2.12 1.69c-0.83,10.92 -1.28,26.81 -1.28,47.64 0,12.04 0.21,19.31 0.63,21.85 0.27,1.75 0.77,2.89 1.54,3.43 0.78,0.49 4.5,1.01 11.15,1.51l0 7.01c-10.25,-0.34 -18.21,-0.5 -23.81,-0.5 -3.01,0 -11.09,0.16 -24.26,0.5z"/>
  <path class="fil2" d="M1620.46 2863.19c-9.98,2.18 -16.52,4.52 -19.49,7.06 -3.02,2.53 -4.54,5.96 -4.54,10.26 0,3.47 0.99,6.23 2.9,8.22 1.94,2 4.38,3.01 7.34,3.01 4.49,0 9.08,-2.57 13.79,-7.64l0 -20.91zm32.28 35.11l0 7 -6.59 -0.26c-3.48,-0.16 -6.97,-0.24 -10.43,-0.24 -5.39,0 -10.46,0.18 -15.26,0.5l-0.83 -0.92 0.83 -11.71 -17.82 13.35c-3.19,0.72 -6.02,1.06 -8.47,1.06 -6.02,0 -10.67,-1.78 -13.97,-5.35 -3.28,-3.62 -4.96,-8.82 -4.96,-15.73 0,-8.51 2.27,-14.46 6.75,-17.95 5.8,-4.57 18.62,-8.63 38.47,-12.22 -0.12,-6.75 -1.28,-11.62 -3.49,-14.67 -3.12,-4.18 -7.96,-6.25 -14.51,-6.25 -1.52,0 -3.1,0.2 -4.71,0.55 -1.61,0.36 -3.25,0.96 -4.92,1.75l-3.81 9.17 -5.9 -1.49 0.18 -3.81 -0.1 -3.8 -0.08 -3.4c8.7,-5.42 14.99,-8.78 18.81,-10.18 2.79,-1.01 6.67,-1.53 11.61,-1.53 6.71,0 12.19,1.02 16.4,3.05 4.2,2.01 7.27,4.77 9.24,8.25 1.91,3.49 2.89,8.58 2.89,15.27 0,2.76 -0.09,7.77 -0.33,14.98 -0.24,7.42 -0.36,13.35 -0.36,17.88 0,7.13 0.21,11.49 0.63,13.04 0.18,0.88 0.75,1.6 1.64,2.1 0.89,0.54 3.91,1.06 9.09,1.56z"/>
  <path class="fil2" d="M1701.21 2904.7l-4.54 10.68c2.24,-0.34 4.09,-0.52 5.58,-0.52 4.74,0 8.43,1.23 11.08,3.64 2.69,2.41 4,5.49 4,9.18 0,4.62 -2.03,8.61 -6.15,12.03 -4.1,3.39 -9.77,5.09 -16.95,5.09 -6.26,0 -12.79,-1.44 -19.53,-4.3l3.16 -6.05c6.63,2.44 11.92,3.68 15.86,3.68 3.49,0 6.17,-0.84 8.08,-2.52 1.87,-1.7 2.8,-3.84 2.8,-6.47 0,-2.37 -0.8,-4.35 -2.51,-5.89 -1.64,-1.52 -3.98,-2.29 -7,-2.29 -1.7,0 -3.54,0.35 -5.6,1.1l-1.7 -1.29 7.24 -16.07 6.18 0zm22.65 -51.77l-7.04 0c-0.39,-6.77 -0.9,-10.66 -1.43,-11.71 -0.78,-1.58 -2.41,-3.04 -5.01,-4.35 -2.62,-1.3 -5.9,-1.96 -9.8,-1.96 -6.08,0 -10.49,1.73 -13.26,5.19 -2.77,3.45 -4.15,9.64 -4.15,18.64 0,11.36 2.57,20.13 7.78,26.32 5.19,6.21 11.86,9.3 20,9.3 2.95,0 5.69,-0.24 8.17,-0.78 2.47,-0.49 4.74,-1.24 6.76,-2.19l1.46 1.87c-1.25,2.71 -2.41,5.45 -3.46,8.27 -3.78,1.84 -7.59,3.23 -11.5,4.15 -3.93,0.96 -7.87,1.4 -11.83,1.4 -12.43,0 -22.12,-3.41 -29.03,-10.3 -6.95,-6.85 -10.4,-16.61 -10.4,-29.27 0,-4.68 0.47,-8.9 1.37,-12.7 0.89,-3.81 2.14,-7.03 3.72,-9.68 1.58,-2.62 3.31,-4.8 5.16,-6.45 1.13,-0.92 6.04,-4.07 14.7,-9.5 5.06,-3.2 8.76,-5.16 11.05,-5.87 2.32,-0.75 5.42,-1.14 9.3,-1.14 3.4,0 6.73,0.28 9.99,0.77 3.24,0.52 6.4,1.29 9.47,2.3l1.46 1.56c-2.02,9.5 -3.22,18.21 -3.48,26.13z"/>
  <path class="fil2" d="M1785.61 2863.19c-9.99,2.18 -16.48,4.52 -19.49,7.06 -3.01,2.53 -4.53,5.96 -4.53,10.26 0,3.47 0.98,6.23 2.92,8.22 1.9,2 4.35,3.01 7.3,3.01 4.51,0 9.09,-2.57 13.8,-7.64l0 -20.91zm-33.91 -52.46l-6.26 0c3.75,-13.36 10.61,-19.99 20.53,-19.99 2.21,0 4.5,0.26 6.88,0.8 2.42,0.56 6.5,1.9 12.23,4.06 4.52,1.65 7.78,2.49 9.83,2.49 2.48,0 4.39,-0.54 5.84,-1.54 1.4,-1.06 2.86,-3.25 4.32,-6.59l5.67 0c-3.4,13.28 -10.05,19.91 -19.83,19.91 -3.86,0 -9.11,-1.32 -15.73,-3.92 -5.57,-2.29 -9.78,-3.45 -12.55,-3.45 -2.62,0 -4.8,0.6 -6.44,1.75 -1.7,1.21 -3.18,3.34 -4.49,6.48zm66.22 87.57l0 7 -6.62 -0.26c-3.49,-0.16 -6.94,-0.24 -10.42,-0.24 -5.4,0 -10.47,0.18 -15.27,0.5l-0.83 -0.92 0.83 -11.71 -17.82 13.35c-3.19,0.72 -5.99,1.06 -8.44,1.06 -6.05,0 -10.7,-1.78 -14.01,-5.35 -3.28,-3.62 -4.94,-8.82 -4.94,-15.73 0,-8.51 2.26,-14.46 6.76,-17.95 5.79,-4.57 18.6,-8.63 38.45,-12.22 -0.12,-6.75 -1.28,-11.62 -3.48,-14.67 -3.14,-4.18 -7.96,-6.25 -14.52,-6.25 -1.49,0 -3.1,0.2 -4.71,0.55 -1.61,0.36 -3.25,0.96 -4.92,1.75l-3.82 9.17 -5.89 -1.49 0.17 -3.81 -0.08 -3.8 -0.09 -3.4c8.73,-5.42 14.98,-8.78 18.8,-10.18 2.81,-1.01 6.68,-1.53 11.63,-1.53 6.71,0 12.19,1.02 16.39,3.05 4.21,2.01 7.27,4.77 9.24,8.25 1.91,3.49 2.92,8.58 2.92,15.27 0,2.76 -0.12,7.77 -0.36,14.98 -0.24,7.42 -0.35,13.35 -0.35,17.88 0,7.13 0.2,11.49 0.62,13.04 0.18,0.88 0.78,1.6 1.64,2.1 0.9,0.54 3.9,1.06 9.12,1.56z"/>
  <path class="fil2" d="M1852.41 2858.82c0,15.17 1.94,26.03 5.82,32.46 3.04,4.97 7.54,7.45 13.59,7.45 5.31,0 9.39,-2.12 12.25,-6.36 2.89,-4.23 4.32,-11.87 4.32,-23.04 0,-15.27 -1.79,-25.89 -5.31,-31.76 -2.89,-4.67 -7.42,-7.03 -13.58,-7.03 -5.28,0 -9.46,2.14 -12.53,6.43 -3,4.29 -4.56,11.56 -4.56,21.85zm-23.66 5.88c0,-13.54 3.19,-23.68 9.48,-30.46 7.57,-8.05 18.53,-12.05 32.81,-12.05 14.28,0 24.65,3.19 31.21,9.65 6.56,6.45 9.8,16.61 9.8,30.53 0,14.31 -3.75,25.36 -11.32,33.08 -7.54,7.78 -18.04,11.66 -31.48,11.66 -13.2,0 -23.28,-3.62 -30.16,-10.88 -6.89,-7.21 -10.34,-17.74 -10.34,-31.53z"/>
  <path class="fil2" d="M2009.03 2895.57c3.28,0.86 6.38,1.27 9.31,1.27 8.04,0 14.24,-2.31 18.56,-6.96 4.32,-4.63 6.47,-11.44 6.47,-20.44 0,-5.87 -0.99,-10.68 -2.92,-14.4 -1.97,-3.74 -4.68,-6.53 -8.11,-8.35 -3.43,-1.81 -8.34,-2.71 -14.7,-2.71l-8.61 0.06 0 2.23 -0.17 22.12 0.17 22.38 0 4.8zm-0.27 -60.74l4.47 0c9.6,0 16.37,-1.73 20.27,-5.23 3.91,-3.47 5.87,-8.9 5.87,-16.33 0,-6.49 -1.58,-11.26 -4.76,-14.34 -3.16,-3.07 -8.35,-4.6 -15.59,-4.6 -2.69,0 -5.93,0.24 -9.81,0.67 -0.35,17.49 -0.53,28.2 -0.53,32.13l0.08 7.7zm-32.78 70.48l0 -4.01c3.25,-1.96 5.72,-3.7 7.42,-5.31 0.69,-7.87 1.04,-25.24 1.04,-52.11 0,-19.49 -0.3,-33.26 -0.86,-41.37 -0.3,-4.37 -0.9,-6.91 -1.79,-7.65 -1.25,-1.18 -5.6,-1.92 -13.02,-2.24l0 -7.18 16.42 0.32 12.55 0.28c3.84,0 9.44,-0.1 16.93,-0.3 7.24,-0.18 12.39,-0.3 15.55,-0.3 12.64,0 21.67,2.12 27.16,6.35 5.48,4.19 8.19,9.98 8.19,17.29 0,7.53 -2.67,13.67 -8.07,18.44 -5.43,4.78 -13.06,8.17 -22.89,10.19l0 0.7c10.13,1.04 17.25,2.55 21.34,4.61 4.11,2.05 7.38,5.27 9.89,9.6 2.5,4.31 3.75,9.26 3.75,14.78 0,6.8 -2.05,13.21 -6.19,19.26 -4.11,6.05 -9.57,10.66 -16.4,13.86 -6.79,3.19 -16.36,4.79 -28.73,4.79 -2.44,0 -6.13,-0.12 -11.05,-0.3 -4.54,-0.2 -8.26,-0.3 -11.18,-0.3 -3.25,0 -9.96,0.18 -20.06,0.6z"/>
  <path class="fil2" d="M2081.3 2905.3l0 -7c5.76,-0.3 9.06,-0.62 9.93,-1.04 0.65,-0.32 1.22,-0.86 1.61,-1.62 0.62,-1.36 1.01,-4.37 1.13,-9.06 0.21,-8.33 0.33,-15.91 0.33,-22.76 0,-13.18 -0.18,-20.99 -0.51,-23.43 -0.18,-1.43 -0.68,-2.45 -1.54,-3.04 -0.87,-0.59 -4.51,-1.01 -10.95,-1.25l0 -6.57c11.48,-1.13 19.71,-2.47 24.62,-4.07l8.8 -3.29c0.77,0 1.19,0.54 1.19,1.61l-0.06 1.22c-0.21,3.58 -0.3,8.75 -0.3,15.45 2.92,-2.77 6.14,-6.32 9.69,-10.58 2.62,-3.18 4.89,-5.28 6.82,-6.22 1.94,-1 4.51,-1.48 7.79,-1.48 1.78,0 3.65,0.3 5.54,0.96 -0.51,5.69 -0.87,13.45 -1.05,23.25l-3.84 1.34c-1.31,-2.21 -2.72,-3.75 -4.3,-4.65 -1.58,-0.9 -3.6,-1.34 -6.1,-1.34 -3.43,0 -6.35,0.9 -8.8,2.68 -2.44,1.76 -4.02,3.8 -4.71,6.09 -0.44,1.69 -0.68,7.53 -0.68,17.47 0,14.45 0.2,22.88 0.59,25.26 0.21,1.61 0.78,2.71 1.62,3.29 1.31,0.82 5.63,1.42 12.93,1.78l0 7 -9.57 -0.26c-6.11,-0.15 -11.38,-0.24 -15.83,-0.24 -4.2,0 -9.09,0.09 -14.69,0.24l-9.66 0.26z"/>
  <path class="fil2" d="M2198.95 2863.19c-9.98,2.18 -16.48,4.52 -19.49,7.06 -3.01,2.53 -4.53,5.96 -4.53,10.26 0,3.47 1.02,6.23 2.93,8.22 1.9,2 4.35,3.01 7.3,3.01 4.5,0 9.09,-2.57 13.79,-7.64l0 -20.91zm32.31 35.11l0 7 -6.61 -0.26c-3.49,-0.16 -6.95,-0.24 -10.44,-0.24 -5.36,0 -10.46,0.18 -15.26,0.5l-0.83 -0.92 0.83 -11.71 -17.82 13.35c-3.19,0.72 -5.99,1.06 -8.44,1.06 -6.01,0 -10.67,-1.78 -14,-5.35 -3.28,-3.62 -4.95,-8.82 -4.95,-15.73 0,-8.51 2.29,-14.46 6.76,-17.95 5.79,-4.57 18.61,-8.63 38.45,-12.22 -0.12,-6.75 -1.27,-11.62 -3.49,-14.67 -3.12,-4.18 -7.95,-6.25 -14.51,-6.25 -1.49,0 -3.07,0.2 -4.71,0.55 -1.6,0.36 -3.24,0.96 -4.89,1.75l-3.84 9.17 -5.9 -1.49 0.18 -3.81 -0.1 -3.8 -0.08 -3.4c8.74,-5.42 14.99,-8.78 18.81,-10.18 2.8,-1.01 6.67,-1.53 11.62,-1.53 6.71,0 12.19,1.02 16.39,3.05 4.24,2.01 7.28,4.77 9.25,8.25 1.93,3.49 2.91,8.58 2.91,15.27 0,2.76 -0.12,7.77 -0.35,14.98 -0.24,7.42 -0.36,13.35 -0.36,17.88 0,7.13 0.2,11.49 0.63,13.04 0.2,0.88 0.77,1.6 1.63,2.1 0.9,0.54 3.93,1.06 9.12,1.56z"/>
  <path class="fil2" d="M2250.57 2877.61c0.29,7.37 0.65,11.45 1.09,12.32 1.25,2.32 3.61,4.38 7.04,6.14 3.46,1.75 7.42,2.65 11.98,2.65 5.57,0 9.74,-1.16 12.49,-3.43 2.77,-2.32 4.11,-5.36 4.11,-9.15 0,-3.27 -0.98,-5.87 -2.94,-7.75 -2.03,-1.87 -6.3,-3.55 -12.86,-4.95 -9.89,-2.17 -16.36,-4.05 -19.33,-5.69 -2.99,-1.61 -5.37,-4.03 -7.16,-7.2 -1.73,-3.2 -2.63,-7.01 -2.63,-11.48 0,-5.22 1.32,-9.87 3.91,-13.88 2.62,-4.09 6.37,-7.25 11.33,-9.54 4.91,-2.34 11.41,-3.46 19.49,-3.46 8.4,0 16.24,1.36 23.46,4.07 -0.78,4.66 -1.26,11.84 -1.52,21.61l-6.77 0c-0.33,-6.13 -0.84,-9.75 -1.43,-10.82 -0.89,-1.66 -2.47,-3.05 -4.89,-4.2 -3.31,-1.55 -6.85,-2.33 -10.61,-2.33 -4.77,0 -8.49,1.07 -11.14,3.23 -2.66,2.12 -3.97,4.79 -3.97,8.01 0,3.01 1.19,5.43 3.58,7.19 2.38,1.79 8.1,3.55 17.11,5.19 6.2,1.13 10.49,2.18 12.87,3.15 4,1.69 7.06,4.21 9.12,7.49 2.06,3.27 3.1,7.42 3.1,12.46 0,9.64 -3.73,17.01 -11.18,22.14 -7.45,5.15 -16.33,7.72 -26.58,7.72 -3.43,0 -7.21,-0.4 -11.36,-1.19 -4.17,-0.79 -8.67,-1.94 -13.56,-3.46l-1.28 -1.43c0.65,-4.95 1.1,-12.76 1.28,-23.41l7.25 0z"/>
  <path class="fil2" d="M2341.9 2781.33c3.63,0 6.76,1.29 9.36,3.88 2.59,2.59 3.87,5.75 3.87,9.46 0,3.63 -1.28,6.75 -3.87,9.35 -2.6,2.59 -5.76,3.91 -9.46,3.91 -3.63,0 -6.73,-1.32 -9.32,-3.91 -2.6,-2.6 -3.91,-5.72 -3.91,-9.35 0,-3.71 1.31,-6.87 3.91,-9.46 2.59,-2.59 5.72,-3.88 9.42,-3.88zm-23.76 123.97l0 -7.01c6.44,-0.2 10.16,-0.62 11.15,-1.19 0.98,-0.56 1.64,-2.14 1.94,-4.8 0.44,-3.57 0.68,-11.5 0.68,-23.78 0,-5.29 -0.08,-10.2 -0.26,-14.69l-0.27 -10.03c0,-3.29 -0.33,-5.32 -1.08,-6.11 -0.68,-0.77 -2.62,-1.21 -5.75,-1.33l-6.41 -0.26 0 -6.57c13.74,-1.03 25.04,-3.49 33.92,-7.36l2.15 1.69c-0.87,10.92 -1.29,26.81 -1.29,47.64 0,12.04 0.21,19.31 0.6,21.85 0.27,1.75 0.8,2.89 1.55,3.43 0.78,0.49 4.5,1.01 11.18,1.51l0 7.01c-10.25,-0.34 -18.21,-0.5 -23.81,-0.5 -3.04,0 -11.12,0.16 -24.3,0.5z"/>
  <path class="fil2" d="M2375.89 2790.75l0 -4.99c8.08,-1.06 14.46,-2.18 19.17,-3.3 4.65,-1.13 9.71,-2.77 15.08,-4.89l2.26 1.9c-0.89,20.36 -1.27,48.79 -1.27,85.27 0,7.37 0.11,14.82 0.29,22.36 0.12,4.79 0.41,7.56 0.84,8.35 0.41,0.78 1.1,1.37 2.02,1.81 0.93,0.49 4.32,0.8 10.17,1.04l0 7.01 -8.97 -0.26c-5.58,-0.16 -10.29,-0.24 -14.1,-0.24l-25.49 0.5 0 -7.01 6.35 -0.36c2.83,-0.12 4.68,-0.62 5.48,-1.58 0.84,-0.91 1.32,-4.48 1.5,-10.72 0.29,-8.62 0.45,-20.86 0.45,-36.72l-0.1 -36.55c-0.06,-11.12 -0.39,-17.37 -0.92,-18.83 -0.24,-0.66 -0.68,-1.2 -1.28,-1.51 -1.04,-0.64 -4.86,-1.08 -11.48,-1.28z"/>
  <path class="fil2" d="M2458.01 2855.66c5.12,0.48 10.25,0.68 15.4,0.68 4.48,0 9.21,-0.2 14.16,-0.68l0.09 -4.02c0,-7.04 -1.28,-12.17 -3.84,-15.39 -2.57,-3.23 -6.06,-4.85 -10.41,-4.85 -3.09,0 -5.75,0.74 -7.96,2.26 -2.23,1.53 -3.9,3.67 -4.98,6.41 -1.07,2.75 -1.87,7.92 -2.46,15.59zm47.62 33.14l2.44 2.48 -3.81 8.16c-4.11,2.58 -8.5,4.47 -13.24,5.75 -4.68,1.28 -9.68,1.92 -14.98,1.92 -12.43,0 -22.21,-3.62 -29.36,-10.82 -7.13,-7.21 -10.7,-17.35 -10.7,-30.41 0,-8.29 1.04,-15.12 3.13,-20.53 1.73,-4.39 4.56,-8.04 8.43,-10.93 3.9,-2.94 8.41,-5.7 13.5,-8.33 5.07,-2.61 10.7,-3.93 16.79,-3.93 9.35,0 17.04,2.63 23.16,7.86 6.07,5.19 9.15,13.6 9.15,25.2 0,1.42 -0.12,3.6 -0.37,6.53l-13.97 2.55c-4.33,0.28 -10.59,0.42 -18.75,0.42l-18.51 0c0.84,9.85 3.78,17.24 8.76,22.18 5.01,4.98 11.41,7.48 19.17,7.48 3.22,0 6.46,-0.49 9.66,-1.43 3.18,-0.93 6.34,-2.33 9.5,-4.15z"/>
  <path class="fil2" d="M2545.93 2781.33c3.64,0 6.77,1.29 9.33,3.88 2.59,2.59 3.91,5.75 3.91,9.46 0,3.63 -1.32,6.75 -3.91,9.35 -2.56,2.59 -5.72,3.91 -9.41,3.91 -3.64,0 -6.77,-1.32 -9.36,-3.91 -2.6,-2.6 -3.88,-5.72 -3.88,-9.35 0,-3.71 1.28,-6.87 3.88,-9.46 2.59,-2.59 5.75,-3.88 9.44,-3.88zm-23.75 123.97l0 -7.01c6.44,-0.2 10.17,-0.62 11.15,-1.19 0.98,-0.56 1.64,-2.14 1.93,-4.8 0.45,-3.57 0.66,-11.5 0.66,-23.78 0,-5.29 -0.09,-10.2 -0.27,-14.69l-0.24 -10.03c0,-3.29 -0.35,-5.32 -1.07,-6.11 -0.68,-0.77 -2.65,-1.21 -5.75,-1.33l-6.41 -0.26 0 -6.57c13.71,-1.03 25.04,-3.49 33.92,-7.36l2.12 1.69c-0.84,10.92 -1.29,26.81 -1.29,47.64 0,12.04 0.21,19.31 0.63,21.85 0.27,1.75 0.78,2.89 1.54,3.43 0.78,0.49 4.51,1.01 11.16,1.51l0 7.01c-10.26,-0.34 -18.22,-0.5 -23.82,-0.5 -3.01,0 -11.09,0.16 -24.26,0.5z"/>
  <path class="fil2" d="M2576.85 2905.3l0 -7c5.75,-0.3 9.09,-0.62 9.92,-1.04 0.65,-0.32 1.22,-0.86 1.64,-1.62 0.59,-1.36 0.98,-4.37 1.1,-9.06 0.24,-8.33 0.36,-15.91 0.36,-22.76 0,-13.18 -0.18,-20.99 -0.54,-23.43 -0.17,-1.43 -0.68,-2.45 -1.54,-3.04 -0.84,-0.59 -4.51,-1.01 -10.94,-1.25l0 -6.57c11.5,-1.13 19.7,-2.47 24.64,-4.07l8.76 -3.29c0.78,0 1.2,0.54 1.2,1.61l-0.06 1.22c-0.18,3.58 -0.3,8.75 -0.3,15.45 2.92,-2.77 6.14,-6.32 9.69,-10.58 2.62,-3.18 4.88,-5.28 6.83,-6.22 1.96,-1 4.52,-1.48 7.77,-1.48 1.82,0 3.67,0.3 5.55,0.96 -0.51,5.69 -0.84,13.45 -1.01,23.25l-3.85 1.34c-1.32,-2.21 -2.74,-3.75 -4.32,-4.65 -1.55,-0.9 -3.58,-1.34 -6.11,-1.34 -3.43,0 -6.36,0.9 -8.8,2.68 -2.44,1.76 -4.02,3.8 -4.68,6.09 -0.47,1.69 -0.71,7.53 -0.71,17.47 0,14.45 0.2,22.88 0.63,25.26 0.17,1.61 0.74,2.71 1.58,3.29 1.31,0.82 5.62,1.42 12.93,1.78l0 7 -9.57 -0.26c-6.07,-0.15 -11.36,-0.24 -15.82,-0.24 -4.2,0 -9.1,0.09 -14.7,0.24l-9.65 0.26z"/>
  <path class="fil2" d="M2694.49 2863.19c-9.98,2.18 -16.48,4.52 -19.46,7.06 -3.03,2.53 -4.56,5.96 -4.56,10.26 0,3.47 1.02,6.23 2.92,8.22 1.91,2 4.35,3.01 7.31,3.01 4.49,0 9.09,-2.57 13.79,-7.64l0 -20.91zm32.31 35.11l0 7 -6.61 -0.26c-3.49,-0.16 -6.95,-0.24 -10.44,-0.24 -5.36,0 -10.46,0.18 -15.26,0.5l-0.83 -0.92 0.83 -11.71 -17.82 13.35c-3.16,0.72 -5.99,1.06 -8.43,1.06 -6.03,0 -10.67,-1.78 -14.01,-5.35 -3.28,-3.62 -4.95,-8.82 -4.95,-15.73 0,-8.51 2.29,-14.46 6.76,-17.95 5.79,-4.57 18.63,-8.63 38.45,-12.22 -0.11,-6.75 -1.28,-11.62 -3.48,-14.67 -3.13,-4.18 -7.96,-6.25 -14.49,-6.25 -1.52,0 -3.1,0.2 -4.74,0.55 -1.58,0.36 -3.25,0.96 -4.89,1.75l-3.84 9.17 -5.87 -1.49 0.15 -3.81 -0.09 -3.8 -0.06 -3.4c8.7,-5.42 14.96,-8.78 18.78,-10.18 2.79,-1.01 6.67,-1.53 11.65,-1.53 6.67,0 12.16,1.02 16.36,3.05 4.24,2.01 7.3,4.77 9.24,8.25 1.94,3.49 2.92,8.58 2.92,15.27 0,2.76 -0.12,7.77 -0.35,14.98 -0.24,7.42 -0.33,13.35 -0.33,17.88 0,7.13 0.17,11.49 0.6,13.04 0.2,0.88 0.77,1.6 1.64,2.1 0.92,0.54 3.92,1.06 9.11,1.56z"/>
  <path class="fil2" d="M2843.84 2844.16c-2.68,-3.82 -5.69,-6.69 -9.15,-8.57 -3.4,-1.9 -7.19,-2.82 -11.33,-2.82 -5.89,0 -10.37,2.08 -13.53,6.29 -3.13,4.2 -4.67,11.22 -4.67,21.09 0,10.14 1.93,17.74 5.77,22.78 3.82,5.01 8.74,7.5 14.73,7.5 4.02,0 7.77,-1.15 11.24,-3.49 3.42,-2.34 5.45,-4.49 6.05,-6.43 0.59,-1.94 0.89,-9.3 0.89,-22.08l0 -14.27zm0 -18.31l0 -14.76c0,-9.14 -0.21,-14.46 -0.6,-15.93 -0.27,-1.08 -0.83,-1.82 -1.64,-2.24 -0.83,-0.42 -4.64,-0.76 -11.5,-0.89l0 -6.18c13.53,-1.46 24.92,-4.2 34.09,-8.2l2.21 2.06c-0.53,9.18 -0.84,17.89 -0.95,26.07l-0.6 67.13c0,11.23 0.21,18.06 0.63,20.5 0.21,1.55 0.78,2.63 1.64,3.23 0.92,0.6 4.37,1.17 10.49,1.66l0 7.01c-6.98,-0.32 -13.77,-0.5 -20.42,-0.5 -4.76,0 -9.23,0.18 -13.41,0.5l-1.49 -1.01c0.74,-5.78 1.25,-10.41 1.55,-13.94 -3.88,2.89 -10.04,7.89 -18.54,14.95 -3.22,1.2 -6.29,1.79 -9.15,1.79 -9.45,0 -17.31,-3.51 -23.61,-10.58 -6.32,-7.04 -9.44,-16.39 -9.44,-28.07 0,-5.71 0.62,-10.88 1.91,-15.53 1.28,-4.63 2.79,-8.15 4.56,-10.46 1.72,-2.36 5.21,-5.35 10.42,-8.98 7.16,-4.98 12.35,-8.07 15.62,-9.39 3.28,-1.27 6.83,-1.9 10.73,-1.9 2.78,0 5.64,0.26 8.53,0.88 2.92,0.6 5.9,1.52 8.97,2.78z"/>
  <path class="fil2" d="M2909.97 2855.66c5.13,0.48 10.28,0.68 15.41,0.68 4.47,0 9.21,-0.2 14.16,-0.68l0.08 -4.02c0,-7.04 -1.27,-12.17 -3.84,-15.39 -2.56,-3.23 -6.05,-4.85 -10.4,-4.85 -3.1,0 -5.75,0.74 -7.96,2.26 -2.24,1.53 -3.88,3.67 -4.97,6.41 -1.08,2.75 -1.88,7.92 -2.48,15.59zm47.63 33.14l2.45 2.48 -3.82 8.16c-4.12,2.58 -8.49,4.47 -13.23,5.75 -4.68,1.28 -9.69,1.92 -15,1.92 -12.43,0 -22.2,-3.62 -29.35,-10.82 -7.13,-7.21 -10.71,-17.35 -10.71,-30.41 0,-8.29 1.05,-15.12 3.16,-20.53 1.7,-4.39 4.53,-8.04 8.41,-10.93 3.9,-2.94 8.41,-5.7 13.53,-8.33 5.07,-2.61 10.67,-3.93 16.75,-3.93 9.36,0 17.05,2.63 23.16,7.86 6.08,5.19 9.15,13.6 9.15,25.2 0,1.42 -0.12,3.6 -0.36,6.53l-13.95 2.55c-4.35,0.28 -10.61,0.42 -18.78,0.42l-18.5 0c0.83,9.85 3.79,17.24 8.76,22.18 5.04,4.98 11.42,7.48 19.16,7.48 3.26,0 6.48,-0.49 9.66,-1.43 3.19,-0.93 6.35,-2.33 9.51,-4.15z"/>
  <path class="fil2" d="M3131.35 2886.76l2.12 1.97c-1.49,2.86 -2.77,5.75 -3.94,8.71 -6.58,3.49 -12.96,5.95 -19.07,7.38 -6.11,1.46 -13.17,2.18 -21.13,2.18 -14.93,0 -27.57,-2.62 -37.89,-7.84 -10.28,-5.24 -18.2,-12.6 -23.78,-22.15 -5.54,-9.5 -8.31,-20.41 -8.31,-32.68 0,-17.75 6.26,-32.26 18.84,-43.55 12.54,-11.29 29.89,-16.97 51.97,-16.97 7.34,0 14.61,0.66 21.85,1.98 7.22,1.3 14.36,3.3 21.46,5.95l0.63 1.28c-1.05,3.11 -1.79,6.07 -2.18,8.92 -0.77,4.95 -1.34,11.08 -1.76,18.45l-7.18 0c-0.36,-9 -0.69,-13.96 -1.02,-14.85 -0.35,-0.86 -1.93,-2.38 -4.7,-4.5 -2.77,-2.15 -6.56,-3.87 -11.33,-5.21 -4.74,-1.34 -9.95,-2.04 -15.73,-2.04 -13.66,0 -24.5,4.22 -32.56,12.68 -8.04,8.41 -12.07,20.15 -12.07,35.16 0,16.32 4.83,29.51 14.52,39.59 8.94,9.33 21.22,14 36.84,14 6.02,0 11.69,-0.62 16.96,-1.87 5.24,-1.24 11.08,-3.46 17.46,-6.59z"/>
  <path class="fil2" d="M3143.73 2790.75l0 -4.99c8.08,-1.06 14.48,-2.18 19.16,-3.3 4.65,-1.13 9.72,-2.77 15.11,-4.89l2.24 1.9c-0.9,20.36 -1.28,48.79 -1.28,85.27 0,7.37 0.12,14.82 0.3,22.36 0.11,4.79 0.41,7.56 0.83,8.35 0.42,0.78 1.1,1.37 2.03,1.81 0.92,0.49 4.32,0.8 10.16,1.04l0 7.01 -8.97 -0.26c-5.55,-0.16 -10.28,-0.24 -14.07,-0.24l-25.51 0.5 0 -7.01 6.34 -0.36c2.83,-0.12 4.68,-0.62 5.49,-1.58 0.83,-0.91 1.34,-4.48 1.49,-10.72 0.3,-8.62 0.45,-20.86 0.45,-36.72l-0.09 -36.55c-0.06,-11.12 -0.39,-17.37 -0.92,-18.83 -0.25,-0.66 -0.69,-1.2 -1.29,-1.51 -1.05,-0.64 -4.86,-1.08 -11.47,-1.28z"/>
  <path class="fil2" d="M3213.96 2814.73l-8.44 0 19.76 -19.13c4.66,-4.49 7.81,-7.2 9.42,-8.16 1.64,-0.92 3.34,-1.4 5.07,-1.4 2.15,0 3.93,0.66 5.25,1.94 1.33,1.27 1.99,2.85 1.99,4.83 0,1.7 -0.54,3.15 -1.64,4.35 -1.1,1.18 -4.62,3.3 -10.45,6.4l-20.96 11.17zm-11.45 90.58l0 -7.01c6.44,-0.23 10.17,-0.62 11.15,-1.21 0.99,-0.56 1.64,-2.14 1.94,-4.78 0.45,-3.59 0.69,-11.52 0.69,-23.77 0,-5.31 -0.1,-10.23 -0.27,-14.72l-0.24 -10.02c0,-3.32 -0.36,-5.33 -1.11,-6.11 -0.68,-0.78 -2.59,-1.22 -5.75,-1.31l-6.41 -0.26 0 -6.59c13.74,-1.04 25.04,-3.5 33.93,-7.34l2.14 1.7c-0.87,10.91 -1.28,26.76 -1.28,47.6 0,12.06 0.18,19.35 0.59,21.84 0.27,1.76 0.81,2.92 1.55,3.44 0.78,0.5 4.51,1.04 11.18,1.53l0 7.01c-10.26,-0.36 -18.21,-0.53 -23.82,-0.53 -3.04,0 -11.11,0.17 -24.29,0.53z"/>
  <path class="fil2" d="M3260.27 2905.3l0 -7c6.23,-0.36 9.72,-0.84 10.52,-1.5 0.8,-0.64 1.28,-2.1 1.43,-4.4 0.36,-5.74 0.54,-15.92 0.54,-30.46 0,-7.19 -0.12,-13.38 -0.36,-18.57 -0.12,-3.19 -0.33,-5.07 -0.66,-5.63 -0.29,-0.48 -0.74,-0.81 -1.37,-1.04 -0.62,-0.22 -3.99,-0.42 -10.1,-0.6l0 -6.57c3.1,0 7.92,-0.67 14.42,-1.99 6.56,-1.34 12.08,-2.86 16.52,-4.59l2.29 -0.78c0.8,0 1.19,0.66 1.19,1.98l-0.08 0.77c-0.18,1.58 -0.22,5.7 -0.22,12.29l13.21 -11.09c1.64,-1.44 3.34,-2.42 5.13,-2.9 2.5,-0.71 5.51,-1.05 9.09,-1.05 6.05,0 10.99,1.05 14.83,3.13 3.82,2.1 6.63,4.95 8.44,8.64 1.76,3.68 2.68,9.4 2.68,17.18 0,3.43 -0.08,7.38 -0.26,11.92 -0.27,9.24 -0.42,17.23 -0.42,23.96 0,3.81 0.29,6.46 0.93,7.96 0.47,1.04 1.1,1.7 1.93,2.06 0.81,0.32 3.93,0.78 9.33,1.28l0 7 -10.49 -0.32 -6.74 -0.18 -17.61 0.5 -0.92 -1.1c1.46,-10.85 2.2,-21.96 2.2,-33.38 0,-14.49 -0.89,-23.39 -2.65,-26.77 -2.27,-4.31 -6.41,-6.49 -12.49,-6.49 -3.84,0 -7.21,0.98 -10.04,2.96 -2.87,1.95 -4.74,4.03 -5.58,6.28 -0.41,0.92 -0.57,3.81 -0.57,8.67 0,20.66 0.04,32.52 0.22,35.5 0.17,3.01 0.68,4.85 1.46,5.55 1.01,0.82 4.86,1.42 11.47,1.78l0 7c-9.93,-0.32 -18.3,-0.5 -25.13,-0.5 -4.05,0 -11.44,0.18 -22.14,0.5z"/>
  <path class="fil2" d="M3391.42 2781.33c3.64,0 6.77,1.29 9.36,3.88 2.59,2.59 3.88,5.75 3.88,9.46 0,3.63 -1.29,6.75 -3.88,9.35 -2.59,2.59 -5.75,3.91 -9.45,3.91 -3.64,0 -6.73,-1.32 -9.32,-3.91 -2.6,-2.6 -3.91,-5.72 -3.91,-9.35 0,-3.71 1.31,-6.87 3.91,-9.46 2.59,-2.59 5.72,-3.88 9.41,-3.88zm-23.75 123.97l0 -7.01c6.44,-0.2 10.16,-0.62 11.14,-1.19 0.99,-0.56 1.64,-2.14 1.94,-4.8 0.45,-3.57 0.69,-11.5 0.69,-23.78 0,-5.29 -0.09,-10.2 -0.27,-14.69l-0.27 -10.03c0,-3.29 -0.33,-5.32 -1.07,-6.11 -0.69,-0.77 -2.62,-1.21 -5.76,-1.33l-6.4 -0.26 0 -6.57c13.74,-1.03 25.03,-3.49 33.91,-7.36l2.15 1.69c-0.86,10.92 -1.28,26.81 -1.28,47.64 0,12.04 0.21,19.31 0.59,21.85 0.27,1.75 0.81,2.89 1.56,3.43 0.77,0.49 4.49,1.01 11.18,1.51l0 7.01c-10.26,-0.34 -18.22,-0.5 -23.82,-0.5 -3.04,0 -11.12,0.16 -24.29,0.5z"/>
  <path class="fil2" d="M3487.79 2852.93l-6.97 0c-0.42,-6.77 -0.93,-10.68 -1.49,-11.72 -0.75,-1.58 -2.42,-3.03 -5,-4.35 -2.6,-1.32 -5.85,-1.95 -9.81,-1.95 -6.05,0 -10.46,1.7 -13.23,5.18 -2.75,3.45 -4.15,9.68 -4.15,18.65 0,11.36 2.59,20.14 7.75,26.35 5.18,6.19 11.86,9.29 20,9.29 2.98,0 5.69,-0.26 8.2,-0.76 2.46,-0.54 4.74,-1.3 6.76,-2.24l1.46 1.87c-1.25,2.72 -2.41,5.48 -3.48,8.25 -3.76,1.86 -7.61,3.26 -11.51,4.22 -3.9,0.92 -7.81,1.35 -11.8,1.35 -12.43,0 -22.12,-3.39 -29.07,-10.28 -6.88,-6.87 -10.36,-16.62 -10.36,-29.29 0,-4.69 0.44,-8.92 1.37,-12.7 0.92,-3.79 2.17,-7.01 3.69,-9.66 1.58,-2.66 3.31,-4.79 5.19,-6.47 1.13,-0.92 6.02,-4.07 14.69,-9.48 5.07,-3.17 8.77,-5.15 11.06,-5.89 2.32,-0.74 5.4,-1.13 9.27,-1.13 3.43,0 6.76,0.27 10.02,0.77 3.21,0.5 6.4,1.28 9.47,2.29l1.46 1.56c-2.06,9.51 -3.22,18.21 -3.52,26.14z"/>
  <path class="fil2" d="M3549.56 2863.19c-9.98,2.18 -16.48,4.52 -19.46,7.06 -3.05,2.53 -4.53,5.96 -4.53,10.26 0,3.47 0.98,6.23 2.89,8.22 1.91,2 4.35,3.01 7.33,3.01 4.47,0 9.09,-2.57 13.77,-7.64l0 -20.91zm32.31 35.11l0 7 -6.62 -0.26c-3.46,-0.16 -6.94,-0.24 -10.43,-0.24 -5.36,0 -10.46,0.18 -15.26,0.5l-0.83 -0.92 0.83 -11.71 -17.82 13.35c-3.16,0.72 -6,1.06 -8.44,1.06 -6.02,0 -10.67,-1.78 -13.98,-5.35 -3.3,-3.62 -4.94,-8.82 -4.94,-15.73 0,-8.51 2.26,-14.46 6.73,-17.95 5.78,-4.57 18.63,-8.63 38.45,-12.22 -0.12,-6.75 -1.25,-11.62 -3.49,-14.67 -3.12,-4.18 -7.96,-6.25 -14.49,-6.25 -1.51,0 -3.09,0.2 -4.73,0.55 -1.58,0.36 -3.22,0.96 -4.89,1.75l-3.84 9.17 -5.88 -1.49 0.18 -3.81 -0.09 -3.8 -0.09 -3.4c8.71,-5.42 14.97,-8.78 18.78,-10.18 2.8,-1.01 6.68,-1.53 11.66,-1.53 6.7,0 12.15,1.02 16.36,3.05 4.23,2.01 7.3,4.77 9.24,8.25 1.93,3.49 2.92,8.58 2.92,15.27 0,2.76 -0.12,7.77 -0.36,14.98 -0.21,7.42 -0.33,13.35 -0.33,17.88 0,7.13 0.18,11.49 0.6,13.04 0.21,0.88 0.77,1.6 1.64,2.1 0.92,0.54 3.93,1.06 9.12,1.56z"/>
  <path class="fil2" d="M3601.17 2877.61c0.29,7.37 0.65,11.45 1.13,12.32 1.25,2.32 3.57,4.38 7,6.14 3.46,1.75 7.42,2.65 12.01,2.65 5.55,0 9.72,-1.16 12.49,-3.43 2.74,-2.32 4.11,-5.36 4.11,-9.15 0,-3.27 -1.01,-5.87 -2.97,-7.75 -2.03,-1.87 -6.26,-3.55 -12.82,-4.95 -9.93,-2.17 -16.37,-4.05 -19.35,-5.69 -3.01,-1.61 -5.39,-4.03 -7.15,-7.2 -1.76,-3.2 -2.62,-7.01 -2.62,-11.48 0,-5.22 1.31,-9.87 3.87,-13.88 2.62,-4.09 6.41,-7.25 11.33,-9.54 4.91,-2.34 11.41,-3.46 19.52,-3.46 8.41,0 16.21,1.36 23.45,4.07 -0.76,4.66 -1.27,11.84 -1.54,21.61l-6.77 0c-0.33,-6.13 -0.8,-9.75 -1.43,-10.82 -0.87,-1.66 -2.47,-3.05 -4.89,-4.2 -3.3,-1.55 -6.83,-2.33 -10.58,-2.33 -4.8,0 -8.5,1.07 -11.15,3.23 -2.65,2.12 -3.99,4.79 -3.99,8.01 0,3.01 1.19,5.43 3.58,7.19 2.41,1.79 8.11,3.55 17.11,5.19 6.22,1.13 10.51,2.18 12.9,3.15 3.99,1.69 7.03,4.21 9.09,7.49 2.08,3.27 3.1,7.42 3.1,12.46 0,9.64 -3.69,17.01 -11.15,22.14 -7.45,5.15 -16.33,7.72 -26.61,7.72 -3.4,0 -7.19,-0.4 -11.35,-1.19 -4.18,-0.79 -8.68,-1.94 -13.57,-3.46l-1.28 -1.43c0.65,-4.95 1.1,-12.76 1.28,-23.41l7.25 0z"/>
  <path class="fil2" d="M3712.59 2905.3l0 -7.18 5.09 -0.32c4.14,-0.24 6.71,-0.96 7.78,-2.16 1.04,-1.18 1.64,-5.23 1.82,-12.12 0.41,-14.03 0.63,-29.26 0.63,-45.66 0,-8.71 -0.06,-18.61 -0.16,-29.73 -0.08,-6.7 -0.47,-10.8 -1.13,-12.27 -0.35,-0.74 -1.01,-1.35 -1.91,-1.78 -0.89,-0.48 -4.94,-0.96 -12.12,-1.48l0 -7.17c6.88,0.18 13.62,0.26 20.23,0.26 7.69,0 15.08,-0.08 22.18,-0.26 3.07,7.23 6.25,14.4 9.56,21.52 2.33,5.06 12.67,26.56 31.03,64.47 19.4,-38.93 32.96,-67.6 40.71,-85.99 6.83,0.3 13.33,0.44 19.47,0.44 7.18,0 14.16,-0.14 20.86,-0.44l0 7.17c-7.45,0.46 -11.68,1.12 -12.63,1.97 -0.99,0.85 -1.62,3.46 -1.89,7.88 -0.41,7.18 -0.59,20.8 -0.59,40.86 0,10.13 0.09,20.83 0.3,32.12 0.21,11.25 0.56,17.62 1.13,19.11 0.42,0.84 0.99,1.5 1.73,1.98 0.71,0.44 4.74,0.98 11.95,1.6l0 7.18c-9.24,-0.38 -17.47,-0.6 -24.68,-0.6 -7.3,0 -17.19,0.22 -29.74,0.6l0 -7.18 5.04 -0.18c3.96,-0.14 6.46,-0.72 7.47,-1.64 0.99,-0.95 1.62,-3.43 1.91,-7.44 0.3,-4.04 0.45,-13.48 0.45,-28.38l0 -51.57c-8.8,17.61 -20,40.69 -33.62,69.22 -5.6,11.74 -9.96,21.31 -13.11,28.73l-5.61 0c-4.29,-9.8 -9.98,-22.22 -17.17,-37.19l-29.59 -60.76 0 11.6c0,32.11 0.11,54.21 0.42,66.35 0.14,4.89 0.83,7.9 1.96,9.06 1.14,1.14 5.36,1.88 12.7,2.2l0 7.18c-5.78,-0.38 -11.56,-0.6 -17.37,-0.6 -8.65,0 -16.31,0.22 -23.1,0.6z"/>
  <path class="fil2" d="M3885.41 2836.01l0 -6.59c9.13,-0.86 17.65,-2.47 25.55,-4.85l8.49 -2.98c1.02,0 1.5,0.66 1.5,1.96l-0.3 5.05c-1.02,13.12 -1.47,25.78 -1.47,37.96 0,7.9 0.39,13.12 1.2,15.71 0.77,2.59 2.23,4.63 4.3,6.03 2.11,1.42 4.85,2.14 8.33,2.14 4.03,0 7.61,-1.1 10.65,-3.34 3.04,-2.2 4.92,-4.67 5.66,-7.37 0.68,-2.67 1.04,-10.29 1.04,-22.92 0,-10.1 -0.18,-15.99 -0.5,-17.69 -0.24,-0.94 -0.63,-1.55 -1.22,-1.87 -0.84,-0.48 -4.72,-0.88 -11.63,-1.24l0 -6.59c11.69,-1.3 20.21,-2.82 25.69,-4.57l9.03 -3.26c0.96,0 1.43,0.6 1.43,1.78l-0.17 2.3c-0.9,9.96 -1.35,27.97 -1.35,54.05 0,7.98 0.21,13.01 0.69,15.07 0.27,0.96 0.71,1.64 1.34,2.05 0.9,0.52 4.47,0.98 10.67,1.46l0 7.01c-6.46,-0.36 -12.93,-0.5 -19.34,-0.5 -5.25,0 -10.08,0.14 -14.55,0.5l-0.77 -1.54c0.24,-2.84 0.48,-7.34 0.68,-13.41 -5.3,4.29 -10.43,8.96 -15.38,14.1 -4.05,1.75 -8.01,2.65 -11.94,2.65 -5.25,0 -9.81,-1.06 -13.69,-3.16 -3.87,-2.13 -6.73,-4.87 -8.58,-8.26 -1.85,-3.4 -2.78,-8.17 -2.78,-14.33l0.18 -9.34c0.19,-5.74 0.25,-10.43 0.25,-14.03 0,-10.14 -0.19,-16.21 -0.6,-18.23 -0.3,-1.3 -0.86,-2.23 -1.82,-2.77 -0.89,-0.52 -4.41,-0.86 -10.59,-0.98z"/>
  <path class="fil2" d="M3993.84 2790.75l0 -4.99c8.07,-1.06 14.45,-2.18 19.17,-3.3 4.64,-1.13 9.68,-2.77 15.08,-4.89l2.26 1.9c-0.89,20.36 -1.28,48.79 -1.28,85.27 0,7.37 0.12,14.82 0.3,22.36 0.12,4.79 0.42,7.56 0.83,8.35 0.42,0.78 1.11,1.37 2.03,1.81 0.93,0.49 4.32,0.8 10.16,1.04l0 7.01 -8.97 -0.26c-5.57,-0.16 -10.28,-0.24 -14.09,-0.24l-25.49 0.5 0 -7.01 6.35 -0.36c2.83,-0.12 4.65,-0.62 5.48,-1.58 0.84,-0.91 1.31,-4.48 1.49,-10.72 0.3,-8.62 0.45,-20.86 0.45,-36.72l-0.09 -36.55c-0.06,-11.12 -0.39,-17.37 -0.93,-18.83 -0.23,-0.66 -0.68,-1.2 -1.27,-1.51 -1.05,-0.64 -4.86,-1.08 -11.48,-1.28z"/>
  <path class="fil2" d="M4049.2 2836.6l11.39 -7.41c-0.15,-10.06 -0.42,-18.93 -0.87,-26.5 7.78,-2.37 15.11,-5.29 22.06,-8.7l2.56 1.97c-1.25,8.25 -2.15,19.35 -2.56,33.23 2.62,0.45 5.21,0.66 7.78,0.66 5.8,0 11.03,-0.38 15.61,-1.19l0.78 0.53 -0.78 3.06c-0.83,3.2 -1.48,6.12 -1.87,8.81 -6.65,-0.46 -11.57,-0.7 -14.69,-0.7 -2.36,0 -4.63,0.12 -6.83,0.36 -0.12,5.75 -0.18,10.82 -0.18,15.2 0,19.2 0.53,30.1 1.73,32.74 1.13,2.59 3.81,3.94 8.07,3.94 1.25,0 2.63,-0.17 4.09,-0.46 1.45,-0.26 2.98,-0.68 4.65,-1.18l1.46 3.23c-3.43,3.82 -6.77,7.79 -10.02,11.9 -2.08,0.32 -4.05,0.6 -5.78,0.74 -1.79,0.18 -3.43,0.28 -4.92,0.28 -4.76,0 -8.73,-0.84 -11.98,-2.48 -3.22,-1.63 -5.54,-3.79 -7,-6.44 -1.46,-2.6 -2.18,-6.53 -2.18,-11.71 0,-2.71 0.12,-9.92 0.42,-21.56 0.3,-10.22 0.45,-18.29 0.45,-24.2l-4.39 -0.18c-1.81,0 -4.13,0.18 -7,0.52l0 -4.46z"/>
  <path class="fil2" d="M4134.66 2781.33c3.63,0 6.77,1.29 9.33,3.88 2.59,2.59 3.9,5.75 3.9,9.46 0,3.63 -1.31,6.75 -3.9,9.35 -2.56,2.59 -5.72,3.91 -9.42,3.91 -3.64,0 -6.74,-1.32 -9.36,-3.91 -2.59,-2.6 -3.87,-5.72 -3.87,-9.35 0,-3.71 1.28,-6.87 3.87,-9.46 2.62,-2.59 5.75,-3.88 9.45,-3.88zm-23.76 123.97l0 -7.01c6.44,-0.2 10.17,-0.62 11.15,-1.19 0.98,-0.56 1.64,-2.14 1.94,-4.8 0.45,-3.57 0.65,-11.5 0.65,-23.78 0,-5.29 -0.09,-10.2 -0.24,-14.69l-0.27 -10.03c0,-3.29 -0.32,-5.32 -1.07,-6.11 -0.68,-0.77 -2.62,-1.21 -5.75,-1.33l-6.41 -0.26 0 -6.57c13.71,-1.03 25.04,-3.49 33.92,-7.36l2.15 1.69c-0.87,10.92 -1.28,26.81 -1.28,47.64 0,12.04 0.17,19.31 0.59,21.85 0.27,1.75 0.81,2.89 1.55,3.43 0.78,0.49 4.5,1.01 11.14,1.51l0 7.01c-10.24,-0.34 -18.2,-0.5 -23.8,-0.5 -3.02,0 -11.1,0.16 -24.27,0.5z"/>
  <path class="fil2" d="M4233.24 2844.16c-2.68,-3.82 -5.7,-6.69 -9.15,-8.57 -3.4,-1.9 -7.18,-2.82 -11.32,-2.82 -5.91,0 -10.38,2.08 -13.54,6.29 -3.12,4.2 -4.68,11.22 -4.68,21.09 0,10.14 1.95,17.74 5.79,22.78 3.81,5.01 8.73,7.5 14.72,7.5 4.03,0 7.78,-1.15 11.23,-3.49 3.43,-2.34 5.46,-4.49 6.05,-6.43 0.6,-1.94 0.9,-9.3 0.9,-22.08l0 -14.27zm0 -18.31l0 -14.76c0,-9.14 -0.2,-14.46 -0.59,-15.93 -0.27,-1.08 -0.84,-1.82 -1.64,-2.24 -0.84,-0.42 -4.66,-0.76 -11.51,-0.89l0 -6.18c13.54,-1.46 24.92,-4.2 34.1,-8.2l2.21 2.06c-0.55,9.18 -0.84,17.89 -0.96,26.07l-0.6 67.13c0,11.23 0.21,18.06 0.63,20.5 0.21,1.55 0.77,2.63 1.64,3.23 0.89,0.6 4.38,1.17 10.49,1.66l0 7.01c-7.01,-0.32 -13.77,-0.5 -20.41,-0.5 -4.78,0 -9.25,0.18 -13.45,0.5l-1.46 -1.01c0.75,-5.78 1.25,-10.41 1.55,-13.94 -3.87,2.89 -10.05,7.89 -18.54,14.95 -3.22,1.2 -6.28,1.79 -9.15,1.79 -9.44,0 -17.32,-3.51 -23.6,-10.58 -6.32,-7.04 -9.45,-16.39 -9.45,-28.07 0,-5.71 0.63,-10.88 1.9,-15.53 1.29,-4.63 2.81,-8.15 4.56,-10.46 1.74,-2.36 5.23,-5.35 10.44,-8.98 7.15,-4.98 12.33,-8.07 15.61,-9.39 3.29,-1.27 6.83,-1.9 10.73,-1.9 2.78,0 5.64,0.26 8.53,0.88 2.92,0.6 5.9,1.52 8.97,2.78z"/>
  <path class="fil2" d="M4299.81 2781.33c3.64,0 6.76,1.29 9.32,3.88 2.6,2.59 3.92,5.75 3.92,9.46 0,3.63 -1.32,6.75 -3.92,9.35 -2.56,2.59 -5.72,3.91 -9.41,3.91 -3.64,0 -6.74,-1.32 -9.33,-3.91 -2.62,-2.6 -3.91,-5.72 -3.91,-9.35 0,-3.71 1.29,-6.87 3.91,-9.46 2.59,-2.59 5.72,-3.88 9.42,-3.88zm-23.75 123.97l0 -7.01c6.43,-0.2 10.16,-0.62 11.14,-1.19 0.98,-0.56 1.64,-2.14 1.94,-4.8 0.44,-3.57 0.65,-11.5 0.65,-23.78 0,-5.29 -0.09,-10.2 -0.23,-14.69l-0.27 -10.03c0,-3.29 -0.33,-5.32 -1.08,-6.11 -0.68,-0.77 -2.62,-1.21 -5.75,-1.33l-6.4 -0.26 0 -6.57c13.7,-1.03 25.03,-3.49 33.91,-7.36l2.15 1.69c-0.87,10.92 -1.29,26.81 -1.29,47.64 0,12.04 0.19,19.31 0.6,21.85 0.27,1.75 0.8,2.89 1.55,3.43 0.78,0.49 4.5,1.01 11.18,1.51l0 7.01c-10.29,-0.34 -18.21,-0.5 -23.85,-0.5 -3,0 -11.08,0.16 -24.25,0.5z"/>
  <path class="fil2" d="M4344.4 2877.61c0.29,7.37 0.66,11.45 1.11,12.32 1.25,2.32 3.6,4.38 7.02,6.14 3.46,1.75 7.43,2.65 11.98,2.65 5.56,0 9.75,-1.16 12.5,-3.43 2.77,-2.32 4.11,-5.36 4.11,-9.15 0,-3.27 -0.98,-5.87 -2.95,-7.75 -2.03,-1.87 -6.29,-3.55 -12.84,-4.95 -9.91,-2.17 -16.37,-4.05 -19.35,-5.69 -2.98,-1.61 -5.37,-4.03 -7.16,-7.2 -1.72,-3.2 -2.62,-7.01 -2.62,-11.48 0,-5.22 1.31,-9.87 3.91,-13.88 2.62,-4.09 6.38,-7.25 11.29,-9.54 4.95,-2.34 11.45,-3.46 19.53,-3.46 8.4,0 16.24,1.36 23.45,4.07 -0.78,4.66 -1.25,11.84 -1.55,21.61l-6.76 0c-0.3,-6.13 -0.81,-9.75 -1.41,-10.82 -0.89,-1.66 -2.5,-3.05 -4.88,-4.2 -3.31,-1.55 -6.86,-2.33 -10.61,-2.33 -4.77,0 -8.5,1.07 -11.15,3.23 -2.66,2.12 -3.96,4.79 -3.96,8.01 0,3.01 1.19,5.43 3.57,7.19 2.39,1.79 8.11,3.55 17.11,5.19 6.2,1.13 10.49,2.18 12.87,3.15 4,1.69 7.07,4.21 9.13,7.49 2.05,3.27 3.1,7.42 3.1,12.46 0,9.64 -3.73,17.01 -11.18,22.14 -7.45,5.15 -16.33,7.72 -26.59,7.72 -3.43,0 -7.21,-0.4 -11.35,-1.19 -4.18,-0.79 -8.68,-1.94 -13.56,-3.46l-1.31 -1.43c0.68,-4.95 1.13,-12.76 1.31,-23.41l7.24 0z"/>
  <path class="fil2" d="M4473.84 2852.93l-6.98 0c-0.41,-6.77 -0.92,-10.68 -1.48,-11.72 -0.76,-1.58 -2.42,-3.03 -5.01,-4.35 -2.6,-1.32 -5.84,-1.95 -9.81,-1.95 -6.05,0 -10.46,1.7 -13.23,5.18 -2.75,3.45 -4.14,9.68 -4.14,18.65 0,11.36 2.59,20.14 7.74,26.35 5.19,6.19 11.87,9.29 20,9.29 2.98,0 5.7,-0.26 8.2,-0.76 2.47,-0.54 4.74,-1.3 6.76,-2.24l1.47 1.87c-1.25,2.72 -2.42,5.48 -3.49,8.25 -3.75,1.86 -7.61,3.26 -11.51,4.22 -3.9,0.92 -7.81,1.35 -11.83,1.35 -12.4,0 -22.08,-3.39 -29.03,-10.28 -6.88,-6.87 -10.37,-16.62 -10.37,-29.29 0,-4.69 0.44,-8.92 1.36,-12.7 0.93,-3.79 2.18,-7.01 3.71,-9.66 1.58,-2.66 3.3,-4.79 5.18,-6.47 1.14,-0.92 6.02,-4.07 14.7,-9.48 5.06,-3.17 8.76,-5.15 11.05,-5.89 2.33,-0.74 5.39,-1.13 9.27,-1.13 3.42,0 6.77,0.27 10.01,0.77 3.22,0.5 6.42,1.28 9.48,2.29l1.47 1.56c-2.07,9.51 -3.22,18.21 -3.52,26.14z"/>
  <path class="fil2" d="M4513.4 2781.33c3.66,0 6.79,1.29 9.35,3.88 2.59,2.59 3.88,5.75 3.88,9.46 0,3.63 -1.29,6.75 -3.88,9.35 -2.56,2.59 -5.72,3.91 -9.45,3.91 -3.63,0 -6.73,-1.32 -9.32,-3.91 -2.6,-2.6 -3.91,-5.72 -3.91,-9.35 0,-3.71 1.31,-6.87 3.91,-9.46 2.59,-2.59 5.72,-3.88 9.42,-3.88zm-23.76 123.97l0 -7.01c6.44,-0.2 10.16,-0.62 11.14,-1.19 1.02,-0.56 1.68,-2.14 1.95,-4.8 0.44,-3.57 0.68,-11.5 0.68,-23.78 0,-5.29 -0.09,-10.2 -0.27,-14.69l-0.27 -10.03c0,-3.29 -0.32,-5.32 -1.04,-6.11 -0.72,-0.77 -2.65,-1.21 -5.75,-1.33l-6.44 -0.26 0 -6.57c13.74,-1.03 25.03,-3.49 33.95,-7.36l2.12 1.69c-0.84,10.92 -1.29,26.81 -1.29,47.64 0,12.04 0.21,19.31 0.59,21.85 0.28,1.75 0.82,2.89 1.56,3.43 0.8,0.49 4.53,1.01 11.18,1.51l0 7.01c-10.26,-0.34 -18.22,-0.5 -23.82,-0.5 -3.01,0 -11.08,0.16 -24.29,0.5z"/>
  <path class="fil2" d="M4581.68 2886.66c2.56,3.23 5.37,5.71 8.35,7.38 3.03,1.64 6.28,2.48 9.83,2.48 5.87,0 10.67,-2.52 14.4,-7.54 3.75,-5.04 5.6,-13.15 5.6,-24.37 0,-9.02 -1.91,-15.85 -5.72,-20.5 -3.82,-4.65 -8.68,-6.96 -14.61,-6.96 -2.98,0 -5.96,0.71 -8.94,2.13 -2.98,1.4 -5.96,3.55 -8.91,6.41l0 40.97zm-34.61 -50.66l0 -6.54c9.99,-0.88 18.25,-2.22 24.8,-4.06l9.13 -2.81c0.8,0 1.19,0.69 1.19,2 0,1.11 -0.1,2.65 -0.31,4.65l-0.2 7.8 13.83 -10.92c2.92,-2.34 7.75,-3.53 14.52,-3.53 9.62,0 17.34,2.99 23.18,8.94 5.79,5.97 8.7,13.98 8.7,24.08 0,5.07 -0.74,10.06 -2.2,14.98 -1.47,4.89 -3.16,8.82 -5.16,11.71 -1.99,2.92 -5.48,6.29 -10.52,10.16 -8.58,6.92 -13.71,10.85 -15.38,11.83 -3.22,1.87 -7.12,2.81 -11.68,2.81 -2.57,0 -5.13,-0.3 -7.69,-0.94 -2.56,-0.61 -5.1,-1.53 -7.6,-2.79l0.33 25.99c0.24,6.25 0.89,9.89 1.96,10.94 1.07,1.04 5.31,1.58 12.64,1.58l0 7.01c-8.82,-0.34 -16.51,-0.52 -23.04,-0.52 -12.55,0 -21.37,0.18 -26.5,0.52l0 -7.01c6.03,-0.18 9.51,-0.54 10.4,-1.02 0.57,-0.36 1.02,-0.89 1.29,-1.63 0.53,-1.39 0.89,-7.21 1.13,-17.5 0.33,-14.49 0.51,-25.25 0.51,-32.31l-0.18 -33.91c-0.06,-9.96 -0.36,-15.65 -0.93,-17.11 -0.29,-0.72 -0.71,-1.25 -1.31,-1.61 -1.01,-0.51 -4.65,-0.79 -10.91,-0.79z"/>
  <path class="fil2" d="M4654.3 2790.75l0 -4.99c8.07,-1.06 14.45,-2.18 19.13,-3.3 4.68,-1.13 9.72,-2.77 15.12,-4.89l2.23 1.9c-0.86,20.36 -1.29,48.79 -1.29,85.27 0,7.37 0.13,14.82 0.33,22.36 0.12,4.79 0.39,7.56 0.81,8.35 0.42,0.78 1.1,1.37 2.06,1.81 0.89,0.49 4.31,0.8 10.13,1.04l0 7.01 -8.97 -0.26c-5.55,-0.16 -10.25,-0.24 -14.07,-0.24l-25.48 0.5 0 -7.01 6.32 -0.36c2.86,-0.12 4.68,-0.62 5.48,-1.58 0.86,-0.91 1.34,-4.48 1.52,-10.72 0.27,-8.62 0.41,-20.86 0.41,-36.72l-0.08 -36.55c-0.06,-11.12 -0.36,-17.37 -0.92,-18.83 -0.25,-0.66 -0.66,-1.2 -1.29,-1.51 -1.01,-0.64 -4.83,-1.08 -11.44,-1.28z"/>
  <path class="fil2" d="M4736.82 2781.33c3.63,0 6.79,1.29 9.36,3.88 2.58,2.59 3.87,5.75 3.87,9.46 0,3.63 -1.29,6.75 -3.87,9.35 -2.57,2.59 -5.76,3.91 -9.46,3.91 -3.63,0 -6.73,-1.32 -9.33,-3.91 -2.59,-2.6 -3.9,-5.72 -3.9,-9.35 0,-3.71 1.31,-6.87 3.9,-9.46 2.6,-2.59 5.72,-3.88 9.43,-3.88zm-23.76 123.97l0 -7.01c6.44,-0.2 10.16,-0.62 11.15,-1.19 0.98,-0.56 1.66,-2.14 1.93,-4.8 0.45,-3.57 0.69,-11.5 0.69,-23.78 0,-5.29 -0.09,-10.2 -0.27,-14.69l-0.26 -10.03c0,-3.29 -0.33,-5.32 -1.05,-6.11 -0.72,-0.77 -2.65,-1.21 -5.78,-1.33l-6.41 -0.26 0 -6.57c13.74,-1.03 25.04,-3.49 33.94,-7.36l2.12 1.69c-0.83,10.92 -1.28,26.81 -1.28,47.64 0,12.04 0.21,19.31 0.6,21.85 0.26,1.75 0.8,2.89 1.55,3.43 0.77,0.49 4.5,1.01 11.17,1.51l0 7.01c-10.25,-0.34 -18.2,-0.5 -23.81,-0.5 -3.04,0 -11.09,0.16 -24.29,0.5z"/>
  <path class="fil2" d="M4770.84 2905.3l0 -7c6.2,-0.36 9.69,-0.84 10.52,-1.5 0.77,-0.64 1.28,-2.1 1.43,-4.4 0.33,-5.74 0.51,-15.92 0.51,-30.46 0,-7.19 -0.12,-13.38 -0.36,-18.57 -0.09,-3.19 -0.3,-5.07 -0.65,-5.63 -0.3,-0.48 -0.75,-0.81 -1.37,-1.04 -0.64,-0.22 -4,-0.42 -10.08,-0.6l0 -6.57c3.1,0 7.9,-0.67 14.39,-1.99 6.56,-1.34 12.08,-2.86 16.51,-4.59l2.3 -0.78c0.84,0 1.23,0.66 1.23,1.98l-0.1 0.77c-0.17,1.58 -0.23,5.7 -0.23,12.29l13.2 -11.09c1.67,-1.44 3.34,-2.42 5.13,-2.9 2.5,-0.71 5.51,-1.05 9.12,-1.05 6.02,0 10.96,1.05 14.81,3.13 3.82,2.1 6.65,4.95 8.44,8.64 1.78,3.68 2.68,9.4 2.68,17.18 0,3.43 -0.09,7.38 -0.24,11.92 -0.3,9.24 -0.45,17.23 -0.45,23.96 0,3.81 0.33,6.46 0.92,7.96 0.48,1.04 1.11,1.7 1.95,2.06 0.82,0.32 3.96,0.78 9.35,1.28l0 7 -10.49 -0.32 -6.76 -0.18 -17.62 0.5 -0.92 -1.1c1.49,-10.85 2.2,-21.96 2.2,-33.38 0,-14.49 -0.87,-23.39 -2.65,-26.77 -2.26,-4.31 -6.41,-6.49 -12.49,-6.49 -3.85,0 -7.21,0.98 -10.04,2.96 -2.86,1.95 -4.72,4.03 -5.58,6.28 -0.39,0.92 -0.56,3.81 -0.56,8.67 0,20.66 0.06,32.52 0.23,35.5 0.16,3.01 0.66,4.85 1.43,5.55 1.05,0.82 4.87,1.42 11.48,1.78l0 7c-9.92,-0.32 -18.27,-0.5 -25.12,-0.5 -4.06,0 -11.45,0.18 -22.12,0.5z"/>
  <path class="fil2" d="M4924.21 2863.19c-10.02,2.18 -16.52,4.52 -19.49,7.06 -3.05,2.53 -4.54,5.96 -4.54,10.26 0,3.47 0.99,6.23 2.89,8.22 1.91,2 4.38,3.01 7.33,3.01 4.51,0 9.09,-2.57 13.81,-7.64l0 -20.91zm32.27 35.11l0 7 -6.58 -0.26c-3.49,-0.16 -6.98,-0.24 -10.47,-0.24 -5.36,0 -10.46,0.18 -15.22,0.5l-0.87 -0.92 0.87 -11.71 -17.85 13.35c-3.16,0.72 -6,1.06 -8.45,1.06 -6.01,0 -10.67,-1.78 -13.97,-5.35 -3.31,-3.62 -4.95,-8.82 -4.95,-15.73 0,-8.51 2.26,-14.46 6.73,-17.95 5.79,-4.57 18.63,-8.63 38.49,-12.22 -0.12,-6.75 -1.29,-11.62 -3.53,-14.67 -3.12,-4.18 -7.95,-6.25 -14.48,-6.25 -1.52,0 -3.1,0.2 -4.74,0.55 -1.58,0.36 -3.22,0.96 -4.89,1.75l-3.84 9.17 -5.87 -1.49 0.18 -3.81 -0.09 -3.8 -0.09 -3.4c8.7,-5.42 14.96,-8.78 18.78,-10.18 2.79,-1.01 6.71,-1.53 11.65,-1.53 6.71,0 12.16,1.02 16.36,3.05 4.24,2.01 7.3,4.77 9.25,8.25 1.93,3.49 2.91,8.58 2.91,15.27 0,2.76 -0.12,7.77 -0.35,14.98 -0.22,7.42 -0.33,13.35 -0.33,17.88 0,7.13 0.21,11.49 0.6,13.04 0.2,0.88 0.76,1.6 1.64,2.1 0.92,0.54 3.92,1.06 9.11,1.56z"/>
  <path class="fil2" d="M4962.13 2905.3l0 -7c5.72,-0.3 9.06,-0.62 9.9,-1.04 0.68,-0.32 1.21,-0.86 1.64,-1.62 0.62,-1.36 0.98,-4.37 1.09,-9.06 0.24,-8.33 0.37,-15.91 0.37,-22.76 0,-13.18 -0.19,-20.99 -0.54,-23.43 -0.18,-1.43 -0.66,-2.45 -1.55,-3.04 -0.84,-0.59 -4.48,-1.01 -10.91,-1.25l0 -6.57c11.48,-1.13 19.67,-2.47 24.61,-4.07l8.8 -3.29c0.78,0 1.19,0.54 1.19,1.61l-0.08 1.22c-0.19,3.58 -0.27,8.75 -0.27,15.45 2.92,-2.77 6.1,-6.32 9.68,-10.58 2.63,-3.18 4.89,-5.28 6.8,-6.22 1.97,-1 4.53,-1.48 7.81,-1.48 1.79,0 3.66,0.3 5.51,0.96 -0.48,5.69 -0.83,13.45 -1.01,23.25l-3.84 1.34c-1.32,-2.21 -2.75,-3.75 -4.3,-4.65 -1.58,-0.9 -3.6,-1.34 -6.11,-1.34 -3.43,0 -6.35,0.9 -8.82,2.68 -2.45,1.76 -4,3.8 -4.68,6.09 -0.48,1.69 -0.69,7.53 -0.69,17.47 0,14.45 0.18,22.88 0.6,25.26 0.2,1.61 0.77,2.71 1.61,3.29 1.31,0.82 5.63,1.42 12.91,1.78l0 7 -9.58 -0.26c-6.07,-0.15 -11.35,-0.24 -15.82,-0.24 -4.17,0 -9.09,0.09 -14.67,0.24l-9.65 0.26z"/>
  <path class="fil2" d="M5057.13 2855.66c5.13,0.48 10.26,0.68 15.39,0.68 4.49,0 9.2,-0.2 14.18,-0.68l0.09 -4.02c0,-7.04 -1.28,-12.17 -3.85,-15.39 -2.59,-3.23 -6.05,-4.85 -10.42,-4.85 -3.08,0 -5.73,0.74 -7.96,2.26 -2.21,1.53 -3.88,3.67 -4.95,6.41 -1.08,2.75 -1.91,7.92 -2.48,15.59zm47.6 33.14l2.48 2.48 -3.82 8.16c-4.12,2.58 -8.53,4.47 -13.23,5.75 -4.71,1.28 -9.69,1.92 -14.99,1.92 -12.44,0 -22.21,-3.62 -29.36,-10.82 -7.12,-7.21 -10.71,-17.35 -10.71,-30.41 0,-8.29 1.05,-15.12 3.14,-20.53 1.72,-4.39 4.53,-8.04 8.4,-10.93 3.91,-2.94 8.44,-5.7 13.53,-8.33 5.07,-2.61 10.71,-3.93 16.78,-3.93 9.36,0 17.05,2.63 23.16,7.86 6.08,5.19 9.15,13.6 9.15,25.2 0,1.42 -0.12,3.6 -0.36,6.53l-13.98 2.55c-4.32,0.28 -10.58,0.42 -18.77,0.42l-18.48 0c0.83,9.85 3.79,17.24 8.76,22.18 5.01,4.98 11.38,7.48 19.16,7.48 3.22,0 6.48,-0.49 9.64,-1.43 3.21,-0.93 6.37,-2.33 9.5,-4.15z"/>
  <path class="fil2" d="M5131.39 2877.61c0.26,7.37 0.62,11.45 1.09,12.32 1.26,2.32 3.58,4.38 7.01,6.14 3.49,1.75 7.45,2.65 12.01,2.65 5.54,0 9.72,-1.16 12.49,-3.43 2.77,-2.32 4.11,-5.36 4.11,-9.15 0,-3.27 -0.98,-5.87 -2.98,-7.75 -1.99,-1.87 -6.26,-3.55 -12.81,-4.95 -9.93,-2.17 -16.37,-4.05 -19.34,-5.69 -3.02,-1.61 -5.37,-4.03 -7.16,-7.2 -1.76,-3.2 -2.63,-7.01 -2.63,-11.48 0,-5.22 1.32,-9.87 3.91,-13.88 2.62,-4.09 6.38,-7.25 11.3,-9.54 4.92,-2.34 11.41,-3.46 19.52,-3.46 8.4,0 16.24,1.36 23.46,4.07 -0.78,4.66 -1.29,11.84 -1.56,21.61l-6.76 0c-0.32,-6.13 -0.81,-9.75 -1.43,-10.82 -0.86,-1.66 -2.48,-3.05 -4.86,-4.2 -3.34,-1.55 -6.85,-2.33 -10.61,-2.33 -4.77,0 -8.49,1.07 -11.14,3.23 -2.66,2.12 -4,4.79 -4,8.01 0,3.01 1.22,5.43 3.61,7.19 2.38,1.79 8.11,3.55 17.11,5.19 6.2,1.13 10.49,2.18 12.87,3.15 4,1.69 7.03,4.21 9.12,7.49 2.06,3.27 3.1,7.42 3.1,12.46 0,9.64 -3.73,17.01 -11.18,22.14 -7.45,5.15 -16.33,7.72 -26.61,7.72 -3.4,0 -7.18,-0.4 -11.36,-1.19 -4.14,-0.79 -8.67,-1.94 -13.56,-3.46l-1.28 -1.43c0.68,-4.95 1.1,-12.76 1.28,-23.41l7.28 0z"/>
  <path class="fil2" d="M1113.89 3090.01c-2.68,-3.81 -5.72,-6.67 -9.15,-8.54 -3.4,-1.92 -7.21,-2.84 -11.32,-2.84 -5.91,0 -10.41,2.08 -13.54,6.29 -3.13,4.19 -4.71,11.24 -4.71,21.11 0,10.13 1.94,17.72 5.78,22.73 3.85,5.04 8.74,7.55 14.75,7.55 4.03,0 7.76,-1.18 11.24,-3.53 3.43,-2.32 5.46,-4.48 6.06,-6.41 0.59,-1.94 0.89,-9.29 0.89,-22.09l0 -14.27zm0 -18.29l0 -14.76c0,-9.16 -0.21,-14.45 -0.59,-15.95 -0.28,-1.07 -0.84,-1.81 -1.64,-2.23 -0.84,-0.42 -4.66,-0.74 -11.54,-0.9l0 -6.17c13.56,-1.46 24.92,-4.2 34.13,-8.19l2.2 2.06c-0.56,9.18 -0.86,17.87 -0.95,26.08l-0.6 67.12c0,11.2 0.21,18.05 0.63,20.51 0.18,1.53 0.75,2.61 1.64,3.21 0.89,0.6 4.38,1.15 10.46,1.67l0 7.01c-6.98,-0.34 -13.74,-0.52 -20.39,-0.52 -4.79,0 -9.26,0.18 -13.44,0.52l-1.46 -1.05c0.74,-5.76 1.25,-10.37 1.55,-13.93 -3.87,2.9 -10.04,7.91 -18.54,14.98 -3.22,1.18 -6.29,1.78 -9.15,1.78 -9.45,0 -17.32,-3.51 -23.63,-10.58 -6.3,-7.03 -9.42,-16.4 -9.42,-28.07 0,-5.69 0.62,-10.89 1.91,-15.54 1.27,-4.61 2.79,-8.13 4.55,-10.46 1.7,-2.36 5.22,-5.33 10.44,-9 7.15,-4.95 12.31,-8.05 15.62,-9.35 3.24,-1.3 6.82,-1.91 10.69,-1.91 2.81,0 5.66,0.26 8.56,0.89 2.92,0.6 5.87,1.53 8.97,2.78z"/>
  <path class="fil2" d="M1180.02 3101.53c5.13,0.46 10.25,0.69 15.38,0.69 4.5,0 9.21,-0.23 14.18,-0.69l0.1 -4.03c0,-7.03 -1.29,-12.16 -3.85,-15.38 -2.56,-3.25 -6.05,-4.86 -10.43,-4.86 -3.07,0 -5.72,0.76 -7.96,2.28 -2.2,1.51 -3.87,3.65 -4.94,6.4 -1.07,2.72 -1.89,7.93 -2.48,15.59zm47.6 33.15l2.47 2.47 -3.81 8.16c-4.11,2.56 -8.53,4.46 -13.23,5.76 -4.72,1.24 -9.69,1.9 -15,1.9 -12.43,0 -22.2,-3.64 -29.36,-10.83 -7.12,-7.2 -10.69,-17.33 -10.69,-30.39 0,-8.28 1.04,-15.11 3.12,-20.54 1.74,-4.37 4.53,-8.04 8.44,-10.94 3.87,-2.91 8.4,-5.69 13.5,-8.31 5.07,-2.63 10.7,-3.93 16.78,-3.93 9.36,0 17.05,2.62 23.16,7.83 6.08,5.23 9.15,13.63 9.15,25.21 0,1.44 -0.12,3.62 -0.35,6.53l-13.99 2.56c-4.31,0.28 -10.57,0.42 -18.77,0.42l-18.48 0c0.83,9.84 3.78,17.23 8.76,22.18 5.01,4.97 11.42,7.49 19.17,7.49 3.22,0 6.46,-0.48 9.62,-1.44 3.22,-0.92 6.38,-2.32 9.51,-4.13z"/>
  <path class="fil2" d="M1288.71 3151.18l0 -7.19c6.61,-0.58 10.4,-1.11 11.35,-1.62 0.63,-0.35 1.08,-0.9 1.37,-1.63 0.57,-1.38 0.96,-5.97 1.19,-13.84 0.31,-12.18 0.42,-21.78 0.42,-28.79 0,-9.44 -0.09,-21.46 -0.33,-36.06 -0.23,-10.88 -0.77,-17.53 -1.63,-20.01 -0.22,-0.71 -0.66,-1.31 -1.37,-1.69 -0.9,-0.56 -4.57,-1.2 -11,-1.88l0 -7.18c11.8,0.41 19.37,0.63 22.83,0.63l42.77 -0.63c9.29,0 16.03,0.89 20.29,2.69 4.24,1.78 7.63,4.67 10.11,8.61 2.48,3.97 3.69,8.6 3.69,13.97 0,6.81 -1.99,12.8 -5.93,17.95 -3.96,5.15 -10.85,9.72 -20.65,13.71l18.21 27.42 14.18 21.01c2.69,3.41 4.66,5.48 5.97,6.2 1.31,0.72 3.45,1.08 6.44,1.14l0 6.59 -5.07 0.08c-14.46,0.12 -23.79,0.3 -27.9,0.52 -4.98,-7.95 -12.37,-19.41 -22.24,-34.44l-17.58 -26.73c0.47,-0.98 0.92,-2.01 1.29,-3.1 2.26,0.3 3.92,0.44 5.03,0.44 5.27,0 10.49,-2.13 15.61,-6.43 5.13,-4.27 7.7,-10.38 7.7,-18.31 0,-6.9 -2.03,-12.28 -6.08,-16.09 -4.06,-3.85 -10.14,-5.75 -18.24,-5.75 -2.6,0 -6.05,0.2 -10.44,0.6l-0.59 25.23 -0.69 31.99c0,7.25 0.27,16.51 0.84,27.77 0.44,8.51 0.89,13.27 1.34,14.28 0.35,0.75 0.98,1.35 1.91,1.83 1.19,0.64 5,1.18 11.53,1.52l0 7.19c-10.26,-0.4 -19.31,-0.6 -27.21,-0.6 -8.41,0 -17.47,0.2 -27.12,0.6z"/>
  <path class="fil2" d="M1437.62 3101.53c5.12,0.46 10.25,0.69 15.37,0.69 4.51,0 9.24,-0.23 14.2,-0.69l0.08 -4.03c0,-7.03 -1.28,-12.16 -3.84,-15.38 -2.56,-3.25 -6.05,-4.86 -10.44,-4.86 -3.06,0 -5.72,0.76 -7.92,2.28 -2.24,1.51 -3.91,3.65 -4.98,6.4 -1.07,2.72 -1.87,7.93 -2.47,15.59zm47.6 33.15l2.47 2.47 -3.82 8.16c-4.11,2.56 -8.49,4.46 -13.23,5.76 -4.71,1.24 -9.69,1.9 -15,1.9 -12.42,0 -22.2,-3.64 -29.35,-10.83 -7.13,-7.2 -10.7,-17.33 -10.7,-30.39 0,-8.28 1.04,-15.11 3.13,-20.54 1.73,-4.37 4.56,-8.04 8.44,-10.94 3.9,-2.91 8.4,-5.69 13.5,-8.31 5.07,-2.63 10.69,-3.93 16.78,-3.93 9.36,0 17.05,2.62 23.15,7.83 6.09,5.23 9.15,13.63 9.15,25.21 0,1.44 -0.11,3.62 -0.35,6.53l-13.98 2.56c-4.32,0.28 -10.58,0.42 -18.75,0.42l-18.5 0c0.82,9.84 3.78,17.23 8.76,22.18 5,4.97 11.41,7.49 19.16,7.49 3.22,0 6.47,-0.48 9.66,-1.44 3.19,-0.92 6.34,-2.32 9.48,-4.13z"/>
  <path class="fil2" d="M1547.75 3109.05c-9.98,2.18 -16.51,4.53 -19.49,7.07 -3.01,2.53 -4.53,5.95 -4.53,10.24 0,3.49 0.98,6.23 2.93,8.21 1.9,2.01 4.35,3.03 7.3,3.03 4.5,0 9.09,-2.55 13.79,-7.67l0 -20.88zm32.31 35.1l0 7.01 -6.61 -0.26c-3.49,-0.16 -6.95,-0.24 -10.44,-0.24 -5.39,0 -10.46,0.18 -15.26,0.5l-0.83 -0.92 0.83 -11.72 -17.82 13.36c-3.19,0.71 -5.99,1.07 -8.44,1.07 -6.05,0 -10.69,-1.79 -14,-5.37 -3.28,-3.59 -4.95,-8.82 -4.95,-15.73 0,-8.49 2.27,-14.46 6.74,-17.95 5.81,-4.55 18.63,-8.6 38.47,-12.22 -0.12,-6.72 -1.27,-11.62 -3.49,-14.66 -3.12,-4.16 -7.95,-6.26 -14.51,-6.26 -1.49,0 -3.09,0.22 -4.71,0.58 -1.6,0.35 -3.24,0.94 -4.91,1.71l-3.82 9.19 -5.9 -1.5 0.18 -3.83 -0.1 -3.75 -0.08 -3.4c8.74,-5.43 14.99,-8.81 18.81,-10.2 2.8,-1.02 6.67,-1.52 11.62,-1.52 6.71,0 12.19,1.01 16.39,3.03 4.2,2.04 7.28,4.78 9.24,8.27 1.91,3.48 2.92,8.58 2.92,15.25 0,2.78 -0.12,7.79 -0.36,15 -0.23,7.42 -0.35,13.35 -0.35,17.89 0,7.11 0.2,11.46 0.63,13.02 0.17,0.89 0.77,1.61 1.63,2.11 0.9,0.54 3.91,1.04 9.12,1.54z"/>
  <path class="fil2" d="M1622.94 3092.47l0 39.22c2.08,3.13 4.61,5.48 7.59,7.1 2.95,1.58 6.32,2.38 10.11,2.38 6.08,0 11,-2.44 14.75,-7.31 3.78,-4.87 5.63,-12.24 5.63,-22.16 0,-9.32 -1.91,-16.4 -5.75,-21.14 -3.84,-4.77 -8.88,-7.15 -15.08,-7.15 -3.3,0 -6.4,0.74 -9.27,2.27 -2.86,1.52 -5.54,3.75 -7.98,6.79zm-18.49 60.48l-4.08 -1.62c1.01,-13.8 1.56,-32.84 1.56,-57.18 0,-11 -0.1,-19.5 -0.27,-25.49l-0.49 -21.96c0,-3.38 -0.29,-5.62 -0.88,-6.69 -0.37,-0.75 -1.11,-1.24 -2.09,-1.54 -0.75,-0.22 -4.11,-0.46 -10.05,-0.66l0 -6.17c3.13,0 8.08,-0.67 14.93,-2 6.83,-1.33 11.92,-2.74 15.35,-4.17l3.76 -1.43c1.07,0 1.58,0.69 1.58,2.03l-0.24 9c-0.09,3.06 -0.3,19.21 -0.59,48.42l10.34 -8.61c3.24,-2.73 6.17,-4.59 8.76,-5.48 2.59,-0.93 5.69,-1.36 9.36,-1.36 9.54,0 17.23,3.07 23.04,9.14 5.75,6.11 8.67,14.08 8.67,23.96 0,4.83 -0.84,9.84 -2.44,14.99 -1.58,5.16 -3.55,9.39 -5.93,12.68 -2.36,3.28 -5.4,6.17 -9.15,8.66 -4.78,3.03 -8.76,5.8 -12.08,8.29 -3.9,2.98 -7.24,4.92 -9.92,5.85 -2.66,0.88 -5.93,1.34 -9.8,1.34 -3.82,0 -7.4,-0.48 -10.68,-1.44 -3.31,-0.98 -7.03,-2.73 -11.21,-5.29 -1.33,1 -3.84,3.27 -7.45,6.73z"/>
  <path class="fil2" d="M1719.92 3027.21c3.63,0 6.77,1.27 9.33,3.87 2.59,2.58 3.9,5.75 3.9,9.45 0,3.63 -1.31,6.77 -3.9,9.35 -2.56,2.6 -5.72,3.88 -9.42,3.88 -3.67,0 -6.77,-1.28 -9.36,-3.88 -2.6,-2.58 -3.87,-5.72 -3.87,-9.35 0,-3.7 1.27,-6.87 3.87,-9.45 2.59,-2.6 5.72,-3.87 9.45,-3.87zm-23.76 123.95l0 -7.01c6.44,-0.21 10.14,-0.62 11.15,-1.18 0.98,-0.56 1.64,-2.15 1.94,-4.81 0.41,-3.58 0.65,-11.5 0.65,-23.78 0,-5.27 -0.08,-10.19 -0.26,-14.7l-0.25 -10c0,-3.35 -0.35,-5.33 -1.07,-6.11 -0.71,-0.81 -2.65,-1.24 -5.75,-1.35l-6.41 -0.26 0 -6.56c13.71,-1.05 25.04,-3.49 33.92,-7.36l2.12 1.7c-0.84,10.9 -1.29,26.79 -1.29,47.61 0,12.06 0.21,19.33 0.64,21.86 0.23,1.76 0.76,2.88 1.54,3.42 0.78,0.52 4.5,1.02 11.15,1.52l0 7.01c-10.25,-0.32 -18.21,-0.5 -23.81,-0.5 -3.02,0 -11.1,0.18 -24.27,0.5z"/>
  <path class="fil2" d="M1753.92 3036.59l0 -4.95c8.07,-1.08 14.45,-2.2 19.13,-3.33 4.68,-1.15 9.72,-2.78 15.11,-4.86l2.24 1.86c-0.86,20.37 -1.29,48.8 -1.29,85.31 0,7.37 0.12,14.78 0.33,22.32 0.12,4.81 0.39,7.57 0.84,8.35 0.39,0.78 1.1,1.4 2.03,1.86 0.92,0.43 4.32,0.79 10.13,0.99l0 7.01 -8.94 -0.25c-5.58,-0.17 -10.28,-0.24 -14.1,-0.24l-25.48 0.49 0 -7.01 6.32 -0.32c2.85,-0.11 4.68,-0.66 5.48,-1.57 0.86,-0.96 1.34,-4.54 1.52,-10.74 0.3,-8.63 0.45,-20.85 0.45,-36.72l-0.09 -36.54c-0.06,-11.11 -0.39,-17.41 -0.96,-18.83 -0.24,-0.69 -0.65,-1.19 -1.27,-1.55 -1.02,-0.62 -4.84,-1.04 -11.45,-1.28z"/>
  <path class="fil2" d="M1836.43 3027.21c3.66,0 6.8,1.27 9.36,3.87 2.59,2.58 3.88,5.75 3.88,9.45 0,3.63 -1.29,6.77 -3.88,9.35 -2.56,2.6 -5.72,3.88 -9.45,3.88 -3.63,0 -6.73,-1.28 -9.32,-3.88 -2.6,-2.58 -3.91,-5.72 -3.91,-9.35 0,-3.7 1.31,-6.87 3.91,-9.45 2.59,-2.6 5.72,-3.87 9.41,-3.87zm-23.75 123.95l0 -7.01c6.44,-0.21 10.16,-0.62 11.14,-1.18 1.02,-0.56 1.68,-2.15 1.95,-4.81 0.43,-3.58 0.68,-11.5 0.68,-23.78 0,-5.27 -0.09,-10.19 -0.27,-14.7l-0.27 -10c0,-3.35 -0.33,-5.33 -1.04,-6.11 -0.72,-0.81 -2.65,-1.24 -5.79,-1.35l-6.4 -0.26 0 -6.56c13.74,-1.05 25.03,-3.49 33.95,-7.36l2.11 1.7c-0.83,10.9 -1.28,26.79 -1.28,47.61 0,12.06 0.2,19.33 0.59,21.86 0.27,1.76 0.81,2.88 1.56,3.42 0.8,0.52 4.49,1.02 11.18,1.52l0 7.01c-10.26,-0.32 -18.22,-0.5 -23.82,-0.5 -3.01,0 -11.09,0.18 -24.29,0.5z"/>
  <path class="fil2" d="M1867.54 3082.48l11.37 -7.46c-0.13,-10.05 -0.42,-18.89 -0.84,-26.46 7.75,-2.39 15.11,-5.31 22.03,-8.7l2.56 1.95c-1.25,8.27 -2.12,19.33 -2.56,33.21 2.62,0.48 5.21,0.69 7.78,0.69 5.8,0 11.02,-0.4 15.65,-1.19l0.74 0.5 -0.74 3.11c-0.87,3.17 -1.5,6.11 -1.91,8.78 -6.65,-0.43 -11.54,-0.67 -14.7,-0.67 -2.32,0 -4.59,0.12 -6.82,0.35 -0.12,5.76 -0.18,10.81 -0.18,15.2 0,19.19 0.57,30.07 1.72,32.72 1.14,2.6 3.82,3.93 8.11,3.93 1.25,0 2.6,-0.13 4.06,-0.44 1.45,-0.27 3.01,-0.69 4.65,-1.19l1.46 3.26c-3.4,3.81 -6.77,7.76 -9.99,11.87 -2.11,0.34 -4.05,0.6 -5.81,0.76 -1.79,0.18 -3.4,0.26 -4.88,0.26 -4.8,0 -8.77,-0.84 -12.02,-2.48 -3.19,-1.65 -5.52,-3.81 -6.98,-6.43 -1.46,-2.59 -2.17,-6.52 -2.17,-11.72 0,-2.73 0.12,-9.92 0.42,-21.54 0.27,-10.22 0.42,-18.31 0.42,-24.2l-4.35 -0.17c-1.83,0 -4.15,0.17 -7.02,0.49l0 -4.43z"/>
  <path class="fil2" d="M1975.21 3109.05c-10.01,2.18 -16.51,4.53 -19.49,7.07 -3.04,2.53 -4.53,5.95 -4.53,10.24 0,3.49 0.98,6.23 2.89,8.21 1.91,2.01 4.38,3.03 7.34,3.03 4.49,0 9.08,-2.55 13.79,-7.67l0 -20.88zm32.28 35.1l0 7.01 -6.62 -0.26c-3.45,-0.16 -6.94,-0.24 -10.42,-0.24 -5.37,0 -10.47,0.18 -15.24,0.5l-0.86 -0.92 0.86 -11.72 -17.85 13.36c-3.16,0.71 -5.99,1.07 -8.44,1.07 -6.01,0 -10.67,-1.79 -13.97,-5.37 -3.31,-3.59 -4.95,-8.82 -4.95,-15.73 0,-8.49 2.26,-14.46 6.74,-17.95 5.78,-4.55 18.62,-8.6 38.47,-12.22 -0.15,-6.72 -1.28,-11.62 -3.51,-14.66 -3.13,-4.16 -7.96,-6.26 -14.49,-6.26 -1.52,0 -3.1,0.22 -4.74,0.58 -1.58,0.35 -3.22,0.94 -4.88,1.71l-3.85 9.19 -5.87 -1.5 0.18 -3.83 -0.09 -3.75 -0.09 -3.4c8.7,-5.43 14.96,-8.81 18.77,-10.2 2.81,-1.02 6.68,-1.52 11.65,-1.52 6.71,0 12.17,1.01 16.37,3.03 4.23,2.04 7.3,4.78 9.24,8.27 1.94,3.48 2.93,8.58 2.93,15.25 0,2.78 -0.13,7.79 -0.37,15 -0.21,7.42 -0.33,13.35 -0.33,17.89 0,7.11 0.19,11.46 0.6,13.02 0.21,0.89 0.78,1.61 1.64,2.11 0.92,0.54 3.94,1.04 9.12,1.54z"/>
  <path class="fil2" d="M2055.92 3150.58l-4.5 10.66c2.21,-0.32 4.06,-0.5 5.55,-0.5 4.73,0 8.46,1.22 11.11,3.63 2.66,2.42 4,5.46 4,9.19 0,4.61 -2.05,8.6 -6.17,12 -4.11,3.4 -9.75,5.09 -16.93,5.09 -6.29,0 -12.78,-1.41 -19.55,-4.29l3.18 -6.05c6.63,2.46 11.9,3.67 15.86,3.67 3.46,0 6.17,-0.84 8.08,-2.53 1.85,-1.68 2.81,-3.82 2.81,-6.43 0,-2.39 -0.84,-4.35 -2.51,-5.92 -1.64,-1.51 -4.03,-2.29 -7.03,-2.29 -1.68,0 -3.52,0.36 -5.61,1.1l-1.67 -1.28 7.24 -16.05 6.14 0zm22.66 -51.79l-7.01 0c-0.39,-6.76 -0.89,-10.67 -1.46,-11.7 -0.74,-1.58 -2.41,-3.04 -5,-4.35 -2.6,-1.32 -5.87,-1.98 -9.81,-1.98 -6.08,0 -10.46,1.74 -13.23,5.19 -2.77,3.46 -4.15,9.67 -4.15,18.66 0,11.35 2.57,20.11 7.76,26.32 5.18,6.19 11.86,9.3 19.99,9.3 2.98,0 5.69,-0.23 8.2,-0.77 2.48,-0.52 4.74,-1.26 6.77,-2.22l1.45 1.88c-1.25,2.71 -2.41,5.47 -3.48,8.27 -3.76,1.83 -7.6,3.23 -11.51,4.17 -3.9,0.92 -7.84,1.39 -11.83,1.39 -12.4,0 -22.11,-3.42 -29.03,-10.3 -6.91,-6.87 -10.37,-16.63 -10.37,-29.27 0,-4.69 0.45,-8.92 1.37,-12.7 0.89,-3.81 2.12,-7.04 3.69,-9.69 1.58,-2.62 3.31,-4.8 5.19,-6.43 1.13,-0.92 6.02,-4.08 14.7,-9.51 5.06,-3.19 8.76,-5.17 11.05,-5.87 2.3,-0.76 5.4,-1.13 9.27,-1.13 3.43,0 6.74,0.25 10.02,0.77 3.22,0.5 6.4,1.28 9.48,2.3l1.45 1.53c-2.05,9.53 -3.22,18.22 -3.51,26.14z"/>
  <path class="fil2" d="M2140.36 3109.05c-10.01,2.18 -16.51,4.53 -19.49,7.07 -3.04,2.53 -4.53,5.95 -4.53,10.24 0,3.49 0.98,6.23 2.89,8.21 1.91,2.01 4.39,3.03 7.33,3.03 4.51,0 9.1,-2.55 13.8,-7.67l0 -20.88zm-33.95 -52.45l-6.22 0c3.75,-13.36 10.61,-20.01 20.5,-20.01 2.24,0 4.53,0.26 6.91,0.81 2.39,0.53 6.48,1.91 12.23,4.04 4.53,1.69 7.78,2.52 9.83,2.52 2.48,0 4.39,-0.54 5.82,-1.56 1.42,-1.03 2.89,-3.25 4.35,-6.58l5.66 0c-3.42,13.3 -10.05,19.9 -19.82,19.9 -3.91,0 -9.15,-1.3 -15.77,-3.89 -5.54,-2.3 -9.75,-3.46 -12.52,-3.46 -2.62,0 -4.8,0.58 -6.46,1.76 -1.68,1.18 -3.2,3.34 -4.51,6.47zm66.23 87.55l0 7.01 -6.59 -0.26c-3.49,-0.16 -6.97,-0.24 -10.46,-0.24 -5.36,0 -10.46,0.18 -15.23,0.5l-0.86 -0.92 0.86 -11.72 -17.85 13.36c-3.16,0.71 -5.99,1.07 -8.43,1.07 -6.03,0 -10.67,-1.79 -13.99,-5.37 -3.3,-3.59 -4.94,-8.82 -4.94,-15.73 0,-8.49 2.27,-14.46 6.74,-17.95 5.77,-4.55 18.63,-8.6 38.47,-12.22 -0.12,-6.72 -1.27,-11.62 -3.51,-14.66 -3.13,-4.16 -7.96,-6.26 -14.48,-6.26 -1.53,0 -3.11,0.22 -4.74,0.58 -1.58,0.35 -3.22,0.94 -4.9,1.71l-3.84 9.19 -5.87 -1.5 0.18 -3.83 -0.09 -3.75 -0.09 -3.4c8.7,-5.43 14.96,-8.81 18.77,-10.2 2.81,-1.02 6.71,-1.52 11.66,-1.52 6.71,0 12.16,1.01 16.37,3.03 4.23,2.04 7.29,4.78 9.23,8.27 1.94,3.48 2.92,8.58 2.92,15.25 0,2.78 -0.12,7.79 -0.35,15 -0.21,7.42 -0.33,13.35 -0.33,17.89 0,7.11 0.2,11.46 0.59,13.02 0.21,0.89 0.78,1.61 1.64,2.11 0.93,0.54 3.94,1.04 9.12,1.54z"/>
  <path class="fil2" d="M2207.16 3104.69c0,15.17 1.94,26.01 5.82,32.44 3.01,5 7.53,7.46 13.56,7.46 5.3,0 9.42,-2.11 12.27,-6.34 2.87,-4.23 4.33,-11.9 4.33,-23.04 0,-15.29 -1.79,-25.9 -5.31,-31.79 -2.89,-4.67 -7.45,-7.03 -13.59,-7.03 -5.27,0 -9.45,2.16 -12.51,6.45 -3.04,4.28 -4.57,11.57 -4.57,21.85zm-23.66 5.87c0,-13.54 3.16,-23.66 9.48,-30.47 7.57,-8.05 18.54,-12.04 32.81,-12.04 14.25,0 24.62,3.19 31.18,9.66 6.56,6.43 9.83,16.6 9.83,30.51 0,14.32 -3.78,25.34 -11.33,33.1 -7.53,7.77 -18.02,11.65 -31.5,11.65 -13.2,0 -23.24,-3.6 -30.13,-10.89 -6.92,-7.21 -10.34,-17.73 -10.34,-31.52z"/>
  <path class="fil2" d="M2323.44 3151.18l0 -7.19c6.95,-0.28 11.03,-0.76 12.22,-1.38 0.81,-0.44 1.4,-1.19 1.79,-2.21 0.63,-1.36 1.02,-6.17 1.19,-14.44 0.3,-13.66 0.43,-23.97 0.43,-30.92l-0.16 -36.14c0,-9.58 -0.29,-15.12 -0.95,-16.58 -0.3,-0.87 -0.86,-1.49 -1.58,-1.87 -1.13,-0.7 -5.45,-1.36 -12.94,-1.98l0 -7.18c8.92,0.29 15.53,0.46 19.79,0.46 4.72,0 10.11,-0.17 16.13,-0.46 13.15,16.8 28.05,34.99 44.62,54.64 11.02,13.1 20.56,23.98 28.55,32.55l0 -33.92c0,-12.85 -0.11,-23.95 -0.42,-33.25 -0.2,-5.53 -0.68,-8.93 -1.33,-10.18 -0.37,-0.68 -0.99,-1.16 -1.91,-1.46 -0.9,-0.28 -4.89,-0.69 -11.96,-1.2l0 -7.18c6.2,0.29 12.37,0.46 18.51,0.46 8.41,0 16.04,-0.17 22.83,-0.46l0 7.18c-6.32,0.39 -10.13,0.86 -11.44,1.38 -0.75,0.26 -1.34,0.68 -1.79,1.18 -0.48,0.52 -0.78,1.17 -1.01,1.98 -0.42,1.37 -0.66,5.74 -0.72,13.13l-0.3 34.2 -0.17 34.43c0,9.24 0.2,18.45 0.56,27.68l-1.1 1.18c-6.92,-1.24 -11.81,-2.07 -14.66,-2.45 -14.64,-16.24 -32.34,-36.62 -53.06,-61.14 -10.52,-12.39 -18.95,-22.84 -25.39,-31.33l0 33.21c0,9.05 0.12,19.93 0.41,32.68 0.18,9.41 0.57,14.8 1.2,16.22 0.23,0.63 0.65,1.11 1.28,1.47 1.1,0.62 5.19,1.18 12.31,1.7l0 7.19c-9.21,-0.4 -15.77,-0.6 -19.74,-0.6 -3.27,0 -10.36,0.2 -21.19,0.6z"/>
  <path class="fil2" d="M2492 3101.53c5.16,0.46 10.28,0.69 15.41,0.69 4.47,0 9.21,-0.23 14.16,-0.69l0.08 -4.03c0,-7.03 -1.27,-12.16 -3.84,-15.38 -2.56,-3.25 -6.05,-4.86 -10.4,-4.86 -3.1,0 -5.76,0.76 -7.96,2.28 -2.21,1.51 -3.87,3.65 -4.94,6.4 -1.11,2.72 -1.91,7.93 -2.51,15.59zm47.63 33.15l2.48 2.47 -3.86 8.16c-4.1,2.56 -8.49,4.46 -13.23,5.76 -4.68,1.24 -9.68,1.9 -14.99,1.9 -12.4,0 -22.21,-3.64 -29.33,-10.83 -7.15,-7.2 -10.73,-17.33 -10.73,-30.39 0,-8.28 1.05,-15.11 3.16,-20.54 1.7,-4.37 4.53,-8.04 8.41,-10.94 3.9,-2.91 8.43,-5.69 13.53,-8.31 5.06,-2.63 10.67,-3.93 16.78,-3.93 9.33,0 17.05,2.62 23.12,7.83 6.09,5.23 9.15,13.63 9.15,25.21 0,1.44 -0.11,3.62 -0.35,6.53l-13.95 2.56c-4.35,0.28 -10.61,0.42 -18.77,0.42l-18.51 0c0.83,9.84 3.78,17.23 8.79,22.18 5,4.97 11.38,7.49 19.13,7.49 3.25,0 6.47,-0.48 9.66,-1.44 3.22,-0.92 6.35,-2.32 9.51,-4.13z"/>
  <path class="fil2" d="M2554.11 3081.89l0 -6.59c9.15,-0.86 17.65,-2.48 25.55,-4.86l8.49 -2.99c1.01,0 1.52,0.66 1.52,1.98l-0.33 5.03c-0.98,13.11 -1.46,25.78 -1.46,37.97 0,7.89 0.39,13.12 1.19,15.71 0.78,2.6 2.24,4.62 4.29,6.01 2.12,1.45 4.86,2.16 8.38,2.16 3.99,0 7.57,-1.1 10.61,-3.35 3.07,-2.22 4.92,-4.68 5.67,-7.35 0.68,-2.7 1.04,-10.33 1.04,-22.92 0,-10.11 -0.15,-16.02 -0.51,-17.75 -0.24,-0.88 -0.63,-1.52 -1.19,-1.86 -0.86,-0.46 -4.74,-0.84 -11.63,-1.19l0 -6.59c11.66,-1.32 20.19,-2.84 25.67,-4.59l9.03 -3.26c0.98,0 1.43,0.6 1.43,1.8l-0.15 2.29c-0.92,9.95 -1.37,27.95 -1.37,54.03 0,7.99 0.21,13.03 0.68,15.09 0.27,0.94 0.72,1.64 1.35,2.06 0.89,0.5 4.47,0.98 10.69,1.46l0 7c-6.5,-0.36 -12.96,-0.51 -19.37,-0.51 -5.25,0 -10.07,0.15 -14.54,0.51l-0.78 -1.55c0.27,-2.86 0.48,-7.33 0.69,-13.42 -5.31,4.29 -10.43,8.98 -15.38,14.09 -4.06,1.76 -8.02,2.66 -11.96,2.66 -5.24,0 -9.8,-1.03 -13.67,-3.15 -3.88,-2.12 -6.74,-4.86 -8.59,-8.27 -1.85,-3.39 -2.77,-8.16 -2.77,-14.33l0.18 -9.33c0.18,-5.75 0.27,-10.44 0.27,-14.03 0,-10.14 -0.21,-16.22 -0.63,-18.21 -0.3,-1.32 -0.87,-2.24 -1.81,-2.78 -0.9,-0.54 -4.42,-0.85 -10.59,-0.97z"/>
  <path class="fil2" d="M2659.48 3151.18l0 -7.01c5.72,-0.3 9.06,-0.64 9.9,-1.06 0.68,-0.32 1.21,-0.86 1.64,-1.59 0.62,-1.39 0.98,-4.4 1.09,-9.07 0.25,-8.34 0.37,-15.91 0.37,-22.78 0,-13.16 -0.18,-20.98 -0.54,-23.42 -0.18,-1.43 -0.65,-2.44 -1.55,-3.04 -0.84,-0.59 -4.47,-1.01 -10.91,-1.25l0 -6.55c11.48,-1.13 19.67,-2.48 24.62,-4.09l8.79 -3.27c0.78,0 1.19,0.53 1.19,1.59l-0.08 1.24c-0.18,3.57 -0.27,8.72 -0.27,15.43 2.92,-2.78 6.1,-6.31 9.69,-10.58 2.62,-3.2 4.88,-5.27 6.79,-6.23 1.97,-0.98 4.53,-1.45 7.81,-1.45 1.79,0 3.66,0.29 5.51,0.95 -0.48,5.69 -0.83,13.44 -1.01,23.24l-3.85 1.34c-1.31,-2.2 -2.74,-3.76 -4.29,-4.65 -1.58,-0.88 -3.6,-1.34 -6.11,-1.34 -3.43,0 -6.35,0.9 -8.82,2.69 -2.45,1.75 -3.99,3.77 -4.69,6.07 -0.47,1.7 -0.68,7.55 -0.68,17.47 0,14.46 0.19,22.89 0.6,25.28 0.21,1.6 0.78,2.71 1.61,3.27 1.31,0.85 5.63,1.44 12.91,1.8l0 7.01 -9.57 -0.28c-6.08,-0.16 -11.36,-0.24 -15.83,-0.24 -4.2,0 -9.09,0.08 -14.66,0.24l-9.66 0.28z"/>
  <path class="fil2" d="M2756.43 3104.69c0,15.17 1.94,26.01 5.81,32.44 3.05,5 7.55,7.46 13.6,7.46 5.3,0 9.38,-2.11 12.25,-6.34 2.89,-4.23 4.32,-11.9 4.32,-23.04 0,-15.29 -1.76,-25.9 -5.31,-31.79 -2.89,-4.67 -7.42,-7.03 -13.56,-7.03 -5.31,0 -9.48,2.16 -12.55,6.45 -3,4.28 -4.56,11.57 -4.56,21.85zm-23.66 5.87c0,-13.54 3.19,-23.66 9.48,-30.47 7.57,-8.05 18.53,-12.04 32.81,-12.04 14.28,0 24.65,3.19 31.21,9.66 6.56,6.43 9.8,16.6 9.8,30.51 0,14.32 -3.75,25.34 -11.32,33.1 -7.54,7.77 -18,11.65 -31.48,11.65 -13.2,0 -23.28,-3.6 -30.13,-10.89 -6.92,-7.21 -10.37,-17.73 -10.37,-31.52z"/>
  <path class="fil2" d="M2827.95 3036.59l0 -4.95c8.08,-1.08 14.46,-2.2 19.16,-3.33 4.65,-1.15 9.72,-2.78 15.08,-4.86l2.27 1.86c-0.9,20.37 -1.29,48.8 -1.29,85.31 0,7.37 0.13,14.78 0.31,22.32 0.12,4.81 0.41,7.57 0.83,8.35 0.42,0.78 1.1,1.4 2.02,1.86 0.93,0.43 4.33,0.79 10.17,0.99l0 7.01 -8.97 -0.25c-5.57,-0.17 -10.29,-0.24 -14.1,-0.24l-25.48 0.49 0 -7.01 6.34 -0.32c2.84,-0.11 4.69,-0.66 5.49,-1.57 0.83,-0.96 1.31,-4.54 1.49,-10.74 0.3,-8.63 0.44,-20.85 0.44,-36.72l-0.08 -36.54c-0.06,-11.11 -0.39,-17.41 -0.92,-18.83 -0.25,-0.69 -0.7,-1.19 -1.29,-1.55 -1.04,-0.62 -4.85,-1.04 -11.47,-1.28z"/>
  <path class="fil2" d="M2912.04 3104.69c0,15.17 1.9,26.01 5.78,32.44 3.04,5 7.57,7.46 13.59,7.46 5.31,0 9.39,-2.11 12.28,-6.34 2.86,-4.23 4.29,-11.9 4.29,-23.04 0,-15.29 -1.76,-25.9 -5.31,-31.79 -2.86,-4.67 -7.41,-7.03 -13.56,-7.03 -5.27,0 -9.47,2.16 -12.52,6.45 -3.03,4.28 -4.55,11.57 -4.55,21.85zm5.69 -44.08l-8.44 0 19.77 -19.15c4.68,-4.5 7.8,-7.22 9.44,-8.15 1.61,-0.94 3.31,-1.41 5.07,-1.41 2.15,0 3.9,0.63 5.25,1.93 1.31,1.28 1.99,2.87 1.99,4.81 0,1.72 -0.57,3.18 -1.66,4.37 -1.11,1.21 -4.6,3.32 -10.44,6.41l-20.98 11.19zm-29.35 49.95c0,-13.54 3.15,-23.66 9.44,-30.47 7.6,-8.05 18.54,-12.04 32.84,-12.04 14.25,0 24.62,3.19 31.18,9.66 6.56,6.43 9.84,16.6 9.84,30.51 0,14.32 -3.79,25.34 -11.33,33.1 -7.57,7.77 -18.03,11.65 -31.51,11.65 -13.2,0 -23.24,-3.6 -30.12,-10.89 -6.92,-7.21 -10.34,-17.73 -10.34,-31.52z"/>
  <path class="fil2" d="M3009.51 3092.5c0,8.58 1.25,14.61 3.79,18.06 2.51,3.49 6.11,5.21 10.82,5.21 4.32,0 7.63,-1.52 10.01,-4.55 2.38,-3.08 3.58,-7.85 3.58,-14.37 0,-7.11 -1.25,-12.3 -3.7,-15.56 -2.47,-3.25 -5.93,-4.89 -10.4,-4.89 -4.32,0 -7.72,1.42 -10.28,4.27 -2.53,2.8 -3.82,6.77 -3.82,11.83zm1.94 60.8c-4.77,3.54 -7.87,6.48 -9.33,8.83 -1.46,2.34 -2.17,5 -2.17,8.05 0,5.47 2.14,9.92 6.4,13.32 4.27,3.39 10.56,5.08 18.87,5.08 6.02,0 11.09,-0.95 15.29,-2.83 4.23,-1.87 7.39,-4.45 9.48,-7.77 2.15,-3.33 3.19,-7 3.19,-11.06 0,-3.69 -0.83,-6.85 -2.56,-9.42 -1.25,-1.78 -3.01,-2.91 -5.19,-3.42 -2.17,-0.51 -8.53,-0.78 -19.02,-0.78l-14.96 0zm60.45 -68.09l-14.19 0c0.8,2.79 1.19,5.41 1.19,7.8 0,10.49 -3.76,18.33 -11.23,23.46 -7.49,5.12 -16.22,7.69 -26.24,7.69 -1.58,0 -3.9,-0.1 -6.97,-0.33 -2.62,1.55 -4.29,2.77 -5.01,3.66 -0.68,0.92 -1.04,1.94 -1.04,3.09 0,2.72 1.88,4.4 5.69,4.96 2.15,0.34 13.69,0.5 34.7,0.5 7.09,0 11.98,0.59 14.69,1.82 2.65,1.23 4.92,3.43 6.68,6.57 1.79,3.13 2.65,7.18 2.65,12.13 0,11.45 -4.5,21.03 -13.59,28.79 -9.06,7.75 -21.31,11.63 -36.72,11.63 -13.12,0 -22.89,-2.3 -29.33,-6.89 -6.44,-4.6 -9.63,-10.43 -9.63,-17.56 0,-4.11 0.99,-7.52 2.98,-10.26 0.93,-1.25 4.03,-3.39 9.4,-6.47l6.16 -3.51c-4.62,-0.9 -7.72,-2.12 -9.24,-3.63 -1.52,-1.52 -2.32,-3.68 -2.32,-6.45 0,-3.04 1.11,-6.73 3.37,-11.11l2.8 -1.79c3.25,-2.12 6.32,-4.38 9.24,-6.83 -6.53,-2.35 -11.24,-5.51 -14.13,-9.5 -2.9,-3.97 -4.32,-9.01 -4.32,-15.02 0,-8.74 3.33,-15.89 10.04,-21.52 6.68,-5.61 16.1,-8.4 28.2,-8.4 5.96,0 11.21,0.59 15.76,1.77 3.37,0.94 6.71,2.54 10.05,4.9 12.55,0.05 20.69,-0.12 24.53,-0.5l1.43 1.76c-1.52,2.11 -3.4,5.2 -5.6,9.24z"/>
  <path class="fil2" d="M3105.13 3027.21c3.64,0 6.76,1.27 9.32,3.87 2.6,2.58 3.88,5.75 3.88,9.45 0,3.63 -1.28,6.77 -3.88,9.35 -2.56,2.6 -5.72,3.88 -9.41,3.88 -3.66,0 -6.77,-1.28 -9.36,-3.88 -2.59,-2.58 -3.88,-5.72 -3.88,-9.35 0,-3.7 1.29,-6.87 3.88,-9.45 2.59,-2.6 5.72,-3.87 9.45,-3.87zm-23.75 123.95l0 -7.01c6.44,-0.21 10.13,-0.62 11.14,-1.18 0.98,-0.56 1.64,-2.15 1.94,-4.81 0.42,-3.58 0.65,-11.5 0.65,-23.78 0,-5.27 -0.09,-10.19 -0.27,-14.7l-0.23 -10c0,-3.35 -0.36,-5.33 -1.08,-6.11 -0.71,-0.81 -2.65,-1.24 -5.75,-1.35l-6.4 -0.26 0 -6.56c13.7,-1.05 25.03,-3.49 33.91,-7.36l2.12 1.7c-0.84,10.9 -1.28,26.79 -1.28,47.61 0,12.06 0.21,19.33 0.62,21.86 0.24,1.76 0.78,2.88 1.56,3.42 0.77,0.52 4.49,1.02 11.14,1.52l0 7.01c-10.26,-0.32 -18.22,-0.5 -23.82,-0.5 -3,0 -11.08,0.18 -24.25,0.5z"/>
  <path class="fil2" d="M3201.5 3098.78l-7 0c-0.42,-6.75 -0.9,-10.66 -1.46,-11.7 -0.78,-1.58 -2.42,-3.05 -5.01,-4.35 -2.59,-1.32 -5.88,-1.98 -9.81,-1.98 -6.04,0 -10.49,1.74 -13.26,5.2 -2.75,3.45 -4.11,9.67 -4.11,18.66 0,11.34 2.56,20.15 7.74,26.34 5.19,6.2 11.87,9.3 20,9.3 2.98,0 5.7,-0.26 8.17,-0.78 2.48,-0.54 4.74,-1.27 6.79,-2.24l1.44 1.88c-1.25,2.72 -2.38,5.49 -3.46,8.26 -3.78,1.84 -7.6,3.25 -11.5,4.2 -3.91,0.92 -7.84,1.38 -11.84,1.38 -12.43,0 -22.08,-3.44 -29.03,-10.28 -6.91,-6.89 -10.37,-16.63 -10.37,-29.31 0,-4.67 0.44,-8.91 1.34,-12.7 0.93,-3.78 2.18,-6.99 3.73,-9.65 1.58,-2.65 3.31,-4.81 5.16,-6.46 1.15,-0.92 6.05,-4.09 14.69,-9.51 5.07,-3.17 8.76,-5.12 11.08,-5.87 2.33,-0.76 5.4,-1.13 9.27,-1.13 3.4,0 6.77,0.25 9.99,0.77 3.25,0.51 6.41,1.28 9.48,2.3l1.46 1.53c-2.03,9.52 -3.22,18.22 -3.49,26.14z"/>
  <path class="fil2" d="M3263.27 3109.05c-9.99,2.18 -16.48,4.53 -19.5,7.07 -3.01,2.53 -4.53,5.95 -4.53,10.24 0,3.49 0.99,6.23 2.92,8.21 1.91,2.01 4.36,3.03 7.3,3.03 4.51,0 9.09,-2.55 13.81,-7.67l0 -20.88zm32.31 35.1l0 7.01 -6.62 -0.26c-3.49,-0.16 -6.94,-0.24 -10.43,-0.24 -5.37,0 -10.46,0.18 -15.26,0.5l-0.84 -0.92 0.84 -11.72 -17.83 13.36c-3.18,0.71 -5.99,1.07 -8.43,1.07 -6.02,0 -10.67,-1.79 -14.01,-5.37 -3.28,-3.59 -4.95,-8.82 -4.95,-15.73 0,-8.49 2.27,-14.46 6.77,-17.95 5.78,-4.55 18.59,-8.6 38.45,-12.22 -0.12,-6.72 -1.29,-11.62 -3.49,-14.66 -3.13,-4.16 -7.96,-6.26 -14.51,-6.26 -1.5,0 -3.11,0.22 -4.72,0.58 -1.6,0.35 -3.24,0.94 -4.92,1.71l-3.81 9.19 -5.9 -1.5 0.17 -3.83 -0.08 -3.75 -0.09 -3.4c8.73,-5.43 14.99,-8.81 18.8,-10.2 2.81,-1.02 6.69,-1.52 11.63,-1.52 6.71,0 12.19,1.01 16.39,3.03 4.23,2.04 7.27,4.78 9.24,8.27 1.91,3.48 2.93,8.58 2.93,15.25 0,2.78 -0.12,7.79 -0.37,15 -0.23,7.42 -0.35,13.35 -0.35,17.89 0,7.11 0.21,11.46 0.62,13.02 0.21,0.89 0.78,1.61 1.64,2.11 0.9,0.54 3.94,1.04 9.13,1.54z"/>
  <path class="fil2" d="M5934.55 776.1c-4.83,-3.25 -10.31,-5.61 -16.18,-6.83 -2.95,-0.6 -5.99,-0.89 -9.15,-0.89l-2648.58 0c-25.01,0 -45.24,20.22 -45.24,45.23l0 1024.94 45.24 0 0 -998.65c0,0 0.69,-12.39 7.06,-18.72 7.69,-7.57 17.65,-7.57 17.65,-7.57l2599.16 0c0,0 9.95,0 17.64,7.57 6.44,6.33 7.07,18.72 7.07,18.72l0 3309.05 -2623.87 0c0,0 -9.96,0 -17.65,-7.57 -6.37,-6.31 -7.06,-18.69 -7.06,-18.69l0 -767.14 -45.24 0 0 793.4c0,24.97 20.23,45.28 45.24,45.28l2648.58 0c3.16,0 6.2,-0.34 9.15,-0.94 5.87,-1.21 11.35,-3.57 16.18,-6.81 4.8,-3.25 8.98,-7.39 12.22,-12.22 3.28,-4.81 5.6,-10.28 6.83,-16.19 0.6,-2.96 0.89,-5.99 0.89,-9.12l0 -3335.34c0,-15.61 -7.93,-29.39 -19.94,-37.51z"/>
 </g>
</svg>
